# Blender 5.2.1 LTS
# www.blender.org
mtllib cat.mtl
o Kitty_001
v 0.039272 0.215602 0.099805
v 0.009258 0.214430 0.053758
v -0.016287 0.226460 0.028045
v -0.042101 0.247162 -0.035305
v -0.028732 0.248503 -0.072481
v -0.008099 0.263429 -0.128677
v -0.000178 0.227132 -0.135770
v -0.006021 0.217676 -0.112459
v -0.017452 0.175217 -0.094952
v 0.005990 0.100760 0.009340
v 0.016460 0.082273 0.038386
v 0.072702 0.098509 0.127616
v -0.004128 0.119839 -0.011417
v -0.009133 0.196609 -0.109334
v -0.025826 0.154363 -0.053496
v -0.012296 0.131931 -0.023114
v -0.037804 0.238863 -0.002829
v -0.011983 0.252886 -0.103660
v 0.080903 0.120390 0.133567
v 0.029311 0.211471 0.078367
v 0.041303 0.075115 0.090254
v 0.039607 0.227115 0.116640
v 0.086146 0.140439 0.148275
v -0.075015 0.118899 0.026787
v -0.120653 0.161312 0.035177
v -0.102374 0.194130 0.044831
v -0.130166 0.208904 0.019959
v -0.170269 0.185935 0.012606
v -0.097638 0.144225 0.004891
v -0.132792 0.229816 -0.038849
v -0.225943 0.213082 -0.036631
v -0.224303 0.175497 -0.030648
v -0.106851 0.231471 -0.076037
v -0.162779 0.219473 -0.078452
v -0.228282 0.190613 -0.072945
v -0.065152 0.240554 -0.072428
v -0.061266 0.222407 -0.105446
v -0.197629 0.158129 -0.053884
v -0.123018 0.143728 -0.018952
v -0.044048 0.112096 0.009732
v -0.055434 0.088673 0.040280
v -0.040753 0.161196 0.105616
v 0.003611 0.207561 0.104176
v -0.047054 0.210047 0.050504
v -0.063822 0.222635 0.026996
v -0.075817 0.240473 -0.036290
v -0.052190 0.250792 -0.130585
v -0.054113 0.232767 -0.133750
v -0.059726 0.125647 -0.008472
v -0.096468 0.126455 -0.019905
v -0.070669 0.116171 -0.012926
v -0.147364 0.140898 -0.045257
v -0.099133 0.147848 -0.063887
v -0.109565 0.195261 -0.104329
v -0.140862 0.166622 -0.085627
v -0.154691 0.147052 -0.061706
v -0.119911 0.127292 -0.039240
v -0.091508 0.117798 -0.032035
v -0.144567 0.135595 -0.048911
v -0.110858 0.141509 -0.057901
v -0.145866 0.141233 -0.057777
v -0.056272 0.140696 -0.048419
v -0.043230 0.117849 -0.018657
v -0.074611 0.119834 -0.033968
v -0.078179 0.136038 -0.049374
v -0.138992 0.160215 -0.015564
v -0.238300 0.203269 -0.012430
v -0.147853 0.223327 -0.007897
v -0.081858 0.232238 -0.003756
v -0.053890 0.241248 -0.103963
v -0.008822 0.120929 0.121183
v 0.028046 0.071308 0.112469
v -0.021837 0.070113 0.101214
v -0.015863 0.064202 0.054137
v -0.048071 0.063928 0.057764
v -0.091047 0.134092 -0.008411
v -0.020039 0.204266 0.077735
v -0.060511 0.184474 0.073629
v -0.077899 0.152019 0.068860
v -0.064169 0.111047 0.068144
v -0.061045 0.087731 0.073946
v -0.047012 0.066165 0.079992
v -0.016909 0.095067 0.110722
v 0.010251 0.218274 0.122316
v -0.021567 0.175086 0.131222
v 0.013903 0.147408 0.140210
v -0.026911 0.189132 0.104826
v -0.015515 0.202107 0.128118
v -0.042038 0.092404 0.029345
v -0.044957 0.163083 -0.081936
v -0.019133 0.143667 -0.034021
v -0.037174 0.129573 -0.032799
v -0.069496 0.128598 -0.040443
v -0.022319 0.123693 -0.016351
v -0.019345 0.138203 -0.032482
v -0.030467 0.148516 -0.051061
v -0.159979 0.120928 -0.076655
v -0.129048 0.116514 -0.069583
v -0.178453 0.124984 -0.084516
v -0.136670 0.127437 -0.091083
v -0.169331 0.127354 -0.090845
v -0.105839 0.117430 -0.071206
v -0.107991 0.125110 -0.085125
v -0.100230 0.121567 -0.077712
v -0.137936 0.100815 -0.086186
v -0.114804 0.099466 -0.077412
v -0.149935 0.102044 -0.095322
v -0.118076 0.102688 -0.101496
v -0.141517 0.102842 -0.101677
v -0.095605 0.099825 -0.078760
v -0.096225 0.101833 -0.094886
v -0.090222 0.101053 -0.086341
v -0.126395 0.092517 -0.084983
v -0.105626 0.092868 -0.076036
v -0.135751 0.092344 -0.094608
v -0.106528 0.091207 -0.101197
v -0.126224 0.091302 -0.101655
v -0.088527 0.093368 -0.077162
v -0.086671 0.092341 -0.093948
v -0.082189 0.093401 -0.084877
v -0.093553 0.018989 0.118393
v -0.106168 0.008729 0.110730
v -0.059919 0.005901 0.109075
v -0.010052 0.018800 0.119690
v -0.003130 0.032760 0.128535
v -0.042762 0.028689 0.125270
v -0.087510 0.010931 0.137091
v -0.101465 0.002649 0.129922
v -0.051164 -0.000030 0.128367
v 0.002215 0.010059 0.137000
v 0.012880 0.022405 0.146156
v -0.029550 0.019010 0.143846
v -0.037496 0.040971 0.110083
v -0.075014 0.033572 0.099628
v -0.008781 0.033420 0.100577
v -0.002644 0.043579 0.115124
v -0.077534 0.026456 0.088914
v -0.043354 0.024743 0.086489
v 0.088152 0.157749 0.173250
v 0.039162 0.236831 0.225907
v -0.096785 0.244289 0.180660
v -0.111433 0.074006 -0.086008
v -0.104907 0.067720 -0.084231
v -0.086826 0.062261 -0.080220
v 0.029885 0.260541 0.179044
v -0.075311 0.067838 -0.080059
v -0.063946 0.072304 -0.082759
v -0.065897 0.080889 -0.090971
v 0.033701 0.247722 0.138646
v -0.067112 0.252763 0.188134
v -0.210850 0.276427 0.168043
v 0.030364 0.259057 0.161325
v -0.163308 0.270555 0.176328
v -0.112821 0.084870 -0.078258
v -0.092685 0.081686 -0.072278
v -0.098270 0.074544 -0.076268
v -0.090838 0.070251 -0.074142
v -0.085370 0.077052 -0.072556
v -0.078316 0.070752 -0.072347
v -0.080292 0.080472 -0.072152
v -0.066442 0.082367 -0.075983
v -0.066711 0.086398 -0.082709
v -0.106152 0.235859 0.173673
v -0.185682 0.253811 0.168920
v -0.029035 0.252642 0.206089
v 0.092278 0.167999 0.207192
v -0.158532 0.275640 0.174647
v -0.014928 0.246016 0.141932
v -0.061375 0.244145 0.149370
v -0.099602 0.228920 0.172867
v -0.079934 0.066036 -0.088563
v -0.029901 0.192526 0.151364
v -0.006416 0.168576 0.167734
v -0.042542 0.190780 0.173451
v -0.064683 0.209594 0.170717
v -0.084197 0.224650 0.188846
v -0.039078 0.202000 0.196045
v -0.086225 0.235969 0.195398
v -0.065877 0.228367 0.204676
v 0.034040 0.246824 0.219984
v -0.063593 0.246210 0.203522
v -0.012430 0.244499 0.218205
v 0.015756 0.237024 0.224318
v -0.036699 0.237400 0.215223
v -0.039592 0.226890 0.211170
v 0.096628 0.171636 0.224781
v -0.077825 0.071412 -0.092985
v 0.001415 0.218705 0.207718
v 0.004209 0.228424 0.221658
v -0.012033 0.210080 0.215389
v -0.011515 0.205084 0.214036
v -0.166230 0.254226 0.171794
v 0.031281 0.253881 0.207404
v 0.085883 0.186314 0.237370
v 0.008296 0.195629 0.217815
v 0.010408 0.210196 0.221246
v 0.021035 0.215041 0.224254
v 0.052094 0.180715 0.223820
v -0.114377 0.074304 -0.095771
v 0.032379 0.220421 0.227872
v -0.134542 0.088000 -0.095467
v -0.114280 0.253342 0.168718
v 0.029770 0.199048 0.232431
v 0.023645 0.194579 0.226856
v 0.067923 0.181845 0.232077
v 0.066410 0.181178 0.229046
v 0.076806 0.180779 0.232025
v 0.092796 0.178663 0.233254
v 0.077275 0.175148 0.223948
v 0.002256 0.181288 0.198494
v -0.092530 0.069859 -0.093276
v -0.062327 0.256083 0.185538
v -0.106529 0.270111 0.178925
v -0.034440 0.012386 0.157468
v -0.014847 0.008636 0.162873
v 0.003273 0.016209 0.164232
v 0.021639 0.018410 0.165783
v 0.038787 0.019462 0.166374
v -0.132803 0.243469 0.158552
v 0.045958 0.016532 0.160426
v -0.100047 0.060615 -0.086157
v -0.032014 0.256017 0.158314
v -0.089523 0.227968 0.157692
v -0.094215 0.264561 0.160965
v -0.118159 0.252471 0.153103
v 0.027757 0.007280 0.148030
v 0.049415 0.221908 0.229395
v 0.054719 0.007724 0.163098
v 0.050952 0.010022 0.168609
v 0.042653 0.006969 0.173759
v 0.022008 0.004526 0.173537
v -0.034666 0.001672 0.162020
v -0.065985 0.005313 0.151869
v -0.026944 -0.002985 0.162171
v -0.073505 -0.000311 0.149715
v 0.006364 -0.004397 0.168185
v 0.038270 -0.001991 0.169809
v 0.001022 -0.003794 0.153694
v 0.041987 -0.000378 0.159917
v -0.051083 -0.005771 0.141418
v -0.079693 -0.004837 0.133870
v -0.039567 0.258643 0.184256
v -0.196763 0.270581 0.172661
v -0.125352 0.265677 0.180056
v -0.091344 0.062432 -0.088847
v -0.031893 0.220290 0.140489
v 0.035746 0.239429 0.126496
v 0.003554 0.232729 0.132252
v -0.093098 0.241208 0.184034
v -0.188865 0.262738 0.171478
v -0.211963 0.265253 0.167339
v 0.059131 0.211203 0.239490
v 0.072981 0.198465 0.241494
v 0.049797 0.206052 0.239749
v 0.047868 0.210029 0.237399
v 0.029785 0.211899 0.210451
v 0.018556 0.223660 0.209025
v 0.012502 0.225779 0.213966
v 0.028986 0.217646 0.209239
v 0.027268 0.218640 0.216050
v 0.027498 0.211324 0.215728
v 0.016657 0.213279 0.219577
v 0.002815 0.225087 0.218116
v 0.011468 0.219363 0.220377
v 0.014725 0.208104 0.213171
v -0.023366 0.218045 0.207986
v 0.002742 0.211537 0.205773
v -0.006114 0.217198 0.203553
v 0.019335 0.210235 0.207231
v -0.010349 0.228559 0.210739
v 0.015569 0.217024 0.204065
v 0.003789 0.224610 0.205492
v -0.012031 0.223287 0.204364
v -0.025966 0.225350 0.208254
v 0.003301 0.211921 0.218414
v -0.011180 0.212947 0.214929
v -0.005673 0.210892 0.209979
v -0.009848 0.219487 0.219794
v -0.028703 0.224762 0.213468
v -0.024829 0.218969 0.214695
v -0.016224 0.226395 0.216628
v 0.087557 0.183856 0.234425
v 0.051120 0.178901 0.211703
v 0.081392 0.186003 0.222970
v 0.059925 0.183535 0.215391
v 0.063238 0.176550 0.213401
v 0.088741 0.176421 0.217876
v 0.056901 0.178021 0.202046
v 0.078675 0.184073 0.208905
v 0.066404 0.180951 0.206455
v 0.066380 0.178494 0.204816
v 0.084223 0.177515 0.208646
v -0.010319 0.349696 -0.352143
v -0.012724 0.345680 -0.354714
v -0.022084 0.278630 -0.156120
v -0.047906 0.297401 -0.185330
v -0.061513 0.316446 -0.215061
v -0.049522 0.334141 -0.250613
v -0.021046 0.347056 -0.289801
v -0.024373 0.332381 -0.346514
v -0.065432 0.318662 -0.302131
v -0.096362 0.305848 -0.264402
v -0.065047 0.269628 -0.198889
v -0.021199 0.247274 -0.166289
v -0.096238 0.288657 -0.229444
v -0.073048 0.267709 -0.158429
v -0.079157 0.252917 -0.163739
v -0.113125 0.288457 -0.190013
v -0.122535 0.274825 -0.195816
v -0.132484 0.307315 -0.220322
v -0.145391 0.294389 -0.226614
v -0.116484 0.324789 -0.255306
v -0.136633 0.312254 -0.262912
v -0.076680 0.337463 -0.294084
v -0.098628 0.325696 -0.299831
v -0.030225 0.348325 -0.338783
v -0.037076 0.337790 -0.345067
v -0.002367 0.357327 -0.334821
v -0.058877 0.043464 0.089722
v -0.054985 0.051393 0.084121
v -0.056361 0.046398 0.069168
v -0.061754 0.038153 0.077258
v -0.025125 0.045876 0.066307
v -0.031176 0.037000 0.074637
v 0.007528 0.051808 0.087880
v -0.001284 0.043321 0.091168
v 0.009002 0.059892 0.106198
v 0.001663 0.051979 0.108159
v -0.030974 0.057381 0.098570
v -0.033750 0.049579 0.101946
v -0.153390 0.128703 -0.059901
v -0.162384 0.127341 -0.067807
v -0.123970 0.119178 -0.060666
v -0.113084 0.119371 -0.051635
v -0.182222 0.136769 -0.070037
v -0.188449 0.134947 -0.076575
v -0.132074 0.142571 -0.078683
v -0.137207 0.140335 -0.084478
v -0.179785 0.140094 -0.084056
v -0.175509 0.142263 -0.078346
v -0.099325 0.120974 -0.062556
v -0.091208 0.121588 -0.053700
v -0.102104 0.135475 -0.077633
v -0.095890 0.137589 -0.070797
v -0.086234 0.130208 -0.061368
v -0.093262 0.128767 -0.069327
v 0.009887 0.027704 0.141625
v -0.030508 0.024596 0.138796
v -0.051998 0.006256 0.119854
v -0.002004 0.016324 0.130764
v -0.085907 0.017052 0.131086
v -0.097869 0.008903 0.122133
v -0.147404 0.109190 -0.097854
v -0.098353 0.107537 -0.091475
v -0.116806 0.103293 -0.074872
v -0.155539 0.107778 -0.091686
v -0.141666 0.105602 -0.083081
v -0.121820 0.108984 -0.097743
v -0.097176 0.103855 -0.076278
v -0.091865 0.105885 -0.083416
v -0.019891 0.230904 0.217179
v 0.053025 0.207470 0.242639
v 0.052665 0.209416 0.241223
v 0.060079 0.210385 0.242546
v 0.068753 0.202333 0.243921
v 0.062601 0.207864 0.244571
v 0.039464 0.203470 0.236784
v 0.041650 0.214817 0.232820
v 0.054470 0.216247 0.234744
v 0.040060 0.188109 0.229855
v 0.059590 0.171819 0.207925
v 0.036531 0.161010 0.170971
v 0.008031 0.232056 0.223205
v -0.010615 0.236283 0.218845
v 0.038662 0.179421 0.212181
v 0.025206 0.187608 0.216646
v 0.063651 0.194148 0.241487
v 0.053356 0.190110 0.238323
v -0.030576 0.216686 0.211199
v 0.023025 0.203338 0.227746
v 0.034889 0.208177 0.232939
v 0.029461 0.211555 0.229352
v -0.044058 0.214361 0.206535
v 0.016125 0.206906 0.224264
v 0.018586 0.220275 0.224336
v 0.144330 0.114905 0.032516
v 0.167595 0.157635 0.037102
v 0.114681 0.191768 0.044062
v 0.049635 0.205453 0.019212
v 0.075648 0.180599 0.012458
v 0.093785 0.137488 0.005329
v 0.005467 0.228099 -0.038765
v 0.006151 0.210575 -0.037802
v 0.035885 0.172153 -0.036038
v 0.040466 0.231730 -0.076233
v 0.088868 0.220143 -0.079977
v 0.136714 0.191161 -0.078327
v 0.002861 0.240617 -0.072293
v 0.044344 0.223756 -0.106443
v 0.129721 0.156584 -0.064978
v 0.086966 0.138703 -0.029739
v 0.062212 0.106582 0.009705
v 0.118685 0.087464 0.049473
v 0.204639 0.164568 0.107238
v 0.087140 0.208970 0.102502
v 0.060576 0.208856 0.049249
v 0.022851 0.220919 0.026211
v -0.017715 0.239580 -0.036029
v 0.046104 0.251850 -0.130590
v 0.057927 0.233982 -0.134205
v 0.052008 0.120964 -0.013778
v 0.090860 0.119250 -0.034918
v 0.068112 0.109073 -0.025051
v 0.131289 0.135790 -0.061867
v 0.063560 0.143902 -0.078984
v 0.098406 0.197098 -0.107989
v 0.109343 0.167229 -0.093780
v 0.126889 0.143213 -0.077588
v 0.110523 0.116995 -0.057903
v 0.082176 0.107331 -0.048905
v 0.134286 0.125842 -0.068591
v 0.082437 0.132164 -0.076681
v 0.128001 0.132003 -0.077317
v 0.018705 0.135722 -0.062496
v 0.030868 0.111380 -0.030649
v 0.055301 0.109529 -0.050359
v 0.046893 0.126208 -0.067176
v 0.057808 0.155244 -0.019339
v 0.003748 0.198875 -0.013299
v 0.007792 0.220222 -0.008116
v -0.008403 0.230645 -0.003884
v 0.033093 0.242219 -0.104073
v 0.184404 0.124930 0.125489
v 0.081772 0.074057 0.117104
v 0.120291 0.075268 0.111038
v 0.055138 0.064543 0.059855
v 0.097825 0.065835 0.069175
v 0.080923 0.128388 -0.016891
v 0.088211 0.204343 0.076320
v 0.164098 0.184591 0.073264
v 0.237729 0.152249 0.072007
v 0.218764 0.112134 0.075540
v 0.175163 0.090735 0.084115
v 0.121263 0.070734 0.092498
v 0.160093 0.099388 0.117408
v 0.079902 0.220046 0.120603
v 0.170005 0.178668 0.131125
v 0.156561 0.150251 0.141446
v 0.148683 0.191757 0.103760
v 0.127331 0.205366 0.126252
v 0.080843 0.089828 0.034774
v 0.005305 0.162992 -0.089767
v 0.007765 0.123765 -0.045834
v 0.042226 0.118473 -0.057494
v 0.007272 0.120936 -0.021447
v -0.014491 0.135963 -0.039090
v -0.016072 0.146921 -0.058330
v 0.153324 0.104844 -0.097490
v 0.117094 0.100329 -0.089660
v 0.169920 0.109165 -0.105832
v 0.110026 0.111953 -0.111905
v 0.151992 0.111827 -0.112096
v 0.083183 0.101279 -0.090903
v 0.078630 0.109368 -0.105403
v 0.072794 0.105548 -0.097598
v 0.122519 0.084084 -0.109782
v 0.097022 0.081124 -0.101670
v 0.130481 0.087141 -0.118117
v 0.081058 0.089139 -0.123385
v 0.113072 0.089355 -0.123718
v 0.067867 0.081761 -0.102520
v 0.057997 0.086844 -0.117226
v 0.056102 0.084371 -0.109309
v 0.110917 0.076363 -0.112162
v 0.087438 0.073936 -0.104104
v 0.116902 0.079160 -0.121165
v 0.067214 0.080425 -0.127355
v 0.097231 0.080782 -0.128046
v 0.060213 0.074890 -0.104458
v 0.046048 0.078908 -0.119941
v 0.046608 0.077173 -0.111265
v 0.139863 0.023597 0.135974
v 0.134200 0.013343 0.127221
v 0.095227 0.010486 0.124552
v 0.086121 0.022952 0.135630
v 0.104787 0.036949 0.145709
v 0.124441 0.033213 0.143050
v 0.167940 0.013850 0.153191
v 0.163614 0.005450 0.145737
v 0.122583 0.002708 0.143842
v 0.108202 0.012799 0.152801
v 0.120313 0.025344 0.162246
v 0.144221 0.022069 0.160066
v 0.107536 0.046800 0.127481
v 0.113851 0.039532 0.117404
v 0.068791 0.038338 0.115347
v 0.091534 0.048798 0.131288
v 0.104023 0.032189 0.105753
v 0.073238 0.030101 0.101742
v 0.157077 0.242300 0.181182
v 0.094099 0.060083 -0.121199
v 0.077707 0.053711 -0.122486
v 0.042961 0.047079 -0.121694
v 0.030874 0.052131 -0.118949
v 0.017731 0.057368 -0.118955
v 0.018277 0.068101 -0.122214
v 0.124786 0.250582 0.188644
v 0.278361 0.274354 0.182483
v 0.215010 0.266753 0.186473
v 0.098335 0.067258 -0.109484
v 0.071090 0.062035 -0.105683
v 0.077585 0.056811 -0.112578
v 0.065472 0.051947 -0.112684
v 0.058312 0.057505 -0.108414
v 0.045186 0.051634 -0.110920
v 0.050083 0.060656 -0.106261
v 0.029386 0.064076 -0.108340
v 0.026646 0.070160 -0.112588
v 0.171430 0.234959 0.173779
v 0.244176 0.252895 0.175112
v 0.091103 0.252646 0.206086
v 0.213062 0.272261 0.186132
v 0.085010 0.246000 0.141864
v 0.133573 0.244168 0.149325
v 0.171528 0.228943 0.172833
v 0.028601 0.053905 -0.127366
v 0.158818 0.192989 0.151500
v 0.170571 0.169074 0.167501
v 0.167847 0.191000 0.173178
v 0.158700 0.209749 0.170748
v 0.156394 0.224703 0.188853
v 0.142350 0.202108 0.196038
v 0.153289 0.235973 0.195395
v 0.138626 0.228317 0.204664
v 0.128703 0.246210 0.203521
v 0.081745 0.244500 0.218205
v 0.062453 0.237005 0.224310
v 0.109804 0.237400 0.215223
v 0.121332 0.226775 0.211133
v 0.027261 0.060452 -0.128507
v 0.096609 0.218705 0.207718
v 0.081961 0.228403 0.221648
v 0.118603 0.210080 0.215389
v 0.123148 0.205074 0.213989
v 0.222484 0.252599 0.177674
v 0.126441 0.195643 0.217806
v 0.101151 0.210176 0.221238
v 0.086469 0.215038 0.224252
v 0.120441 0.180722 0.223830
v 0.087580 0.063996 -0.129942
v 0.068758 0.220417 0.227869
v 0.117952 0.075947 -0.124162
v 0.178239 0.253177 0.172652
v 0.107214 0.199047 0.232408
v 0.119175 0.194589 0.226855
v 0.109346 0.181845 0.232077
v 0.109832 0.181299 0.228142
v 0.102005 0.180729 0.231522
v 0.112128 0.174799 0.223991
v 0.148645 0.181380 0.198430
v 0.046850 0.059147 -0.129560
v 0.119422 0.254099 0.186401
v 0.157692 0.267053 0.185485
v 0.175617 0.015329 0.173593
v 0.178797 0.011591 0.179028
v 0.163442 0.019202 0.180418
v 0.154557 0.021329 0.182001
v 0.144004 0.022317 0.182630
v 0.208281 0.245467 0.161639
v 0.129743 0.019291 0.176582
v 0.060229 0.048020 -0.127424
v 0.094322 0.256026 0.158254
v 0.170988 0.228087 0.157688
v 0.164157 0.266474 0.167437
v 0.198435 0.256315 0.158333
v 0.118326 0.009868 0.163989
v 0.135953 0.010323 0.179243
v 0.149068 0.012758 0.184834
v 0.168465 0.009846 0.189986
v 0.183716 0.007511 0.189750
v 0.196084 0.004542 0.178177
v 0.189858 0.008128 0.167967
v 0.197208 -0.000167 0.178329
v 0.194121 0.002333 0.165790
v 0.192783 -0.001552 0.184383
v 0.172775 0.000728 0.186022
v 0.156808 -0.001174 0.169731
v 0.142667 0.002100 0.176012
v 0.159221 -0.003333 0.157235
v 0.156170 -0.002380 0.149449
v 0.098987 0.258376 0.184378
v 0.253608 0.267344 0.184715
v 0.175167 0.262109 0.186270
v 0.042181 0.050738 -0.129280
v 0.127576 0.220452 0.140518
v 0.075651 0.232747 0.132225
v 0.155535 0.239720 0.184037
v 0.245543 0.260356 0.181039
v 0.277861 0.263946 0.178227
v 0.077819 0.206052 0.239749
v 0.072207 0.210029 0.237399
v 0.081471 0.211899 0.210451
v 0.076096 0.223660 0.209025
v 0.078651 0.225779 0.213966
v 0.074323 0.217646 0.209239
v 0.075416 0.218640 0.216050
v 0.084919 0.211324 0.215728
v 0.091816 0.213275 0.219574
v 0.087712 0.225087 0.218116
v 0.088134 0.219363 0.220377
v 0.098859 0.208103 0.213171
v 0.118249 0.218044 0.207986
v 0.103796 0.211537 0.205773
v 0.104564 0.217197 0.203553
v 0.091712 0.210235 0.207231
v 0.094632 0.228559 0.210739
v 0.086436 0.217023 0.204065
v 0.087420 0.224610 0.205492
v 0.102551 0.223287 0.204364
v 0.111936 0.225350 0.208253
v 0.104283 0.211900 0.218403
v 0.114375 0.212908 0.214904
v 0.111829 0.210892 0.209979
v 0.105604 0.219453 0.219794
v 0.114743 0.224762 0.213468
v 0.118478 0.218921 0.214694
v 0.102087 0.226394 0.216628
v 0.115565 0.178900 0.211702
v 0.102227 0.183535 0.215391
v 0.109876 0.176550 0.213401
v 0.106523 0.178021 0.202046
v 0.094942 0.180951 0.206455
v 0.098161 0.178494 0.204816
v 0.035719 0.268449 -0.158375
v 0.041532 0.253754 -0.163831
v 0.002360 0.288789 -0.189907
v -0.002489 0.275225 -0.195766
v -0.019979 0.307461 -0.220141
v -0.034692 0.294537 -0.226461
v -0.019327 0.324884 -0.255034
v -0.036698 0.312345 -0.262653
v -0.000069 0.337588 -0.293711
v -0.017077 0.325821 -0.299458
v 0.004492 0.348434 -0.338449
v -0.004650 0.337893 -0.344751
v 0.106398 0.049698 0.106702
v 0.110048 0.057347 0.099973
v 0.093680 0.051300 0.083778
v 0.092439 0.043696 0.093049
v 0.059056 0.049506 0.077013
v 0.062959 0.041707 0.087753
v 0.054409 0.055022 0.096309
v 0.059669 0.047471 0.102550
v 0.084120 0.064309 0.117137
v 0.086592 0.057000 0.121630
v 0.109231 0.063256 0.112919
v 0.106210 0.055636 0.117815
v 0.149727 0.115317 -0.080162
v 0.159690 0.112713 -0.088358
v 0.114393 0.104346 -0.080070
v 0.105906 0.106024 -0.070401
v 0.179421 0.123731 -0.091178
v 0.185542 0.120732 -0.097884
v 0.109754 0.129794 -0.099103
v 0.114635 0.126469 -0.105159
v 0.169148 0.126269 -0.105346
v 0.165503 0.129561 -0.099429
v 0.077012 0.106177 -0.081519
v 0.069818 0.108189 -0.072028
v 0.073906 0.121186 -0.097561
v 0.067155 0.124434 -0.090391
v 0.057855 0.116840 -0.080215
v 0.065828 0.114131 -0.088641
v 0.114170 0.031006 0.157914
v 0.133974 0.028051 0.155329
v 0.108422 0.009527 0.135289
v 0.098154 0.019468 0.146518
v 0.153017 0.020429 0.147474
v 0.147308 0.012212 0.138032
v 0.120921 0.094226 -0.118797
v 0.062238 0.091465 -0.112695
v 0.099951 0.084499 -0.098105
v 0.137563 0.091673 -0.113432
v 0.127486 0.088063 -0.105664
v 0.087190 0.094029 -0.118475
v 0.070487 0.085313 -0.099019
v 0.059296 0.088473 -0.105308
v 0.100036 0.230898 0.217177
v 0.072564 0.207470 0.242639
v 0.069089 0.209416 0.241223
v 0.091840 0.203470 0.236784
v 0.069449 0.214817 0.232820
v 0.119795 0.188127 0.229868
v 0.118460 0.171850 0.207895
v 0.136576 0.161578 0.170873
v 0.074816 0.232032 0.223195
v 0.087448 0.236279 0.218843
v 0.126806 0.179460 0.212146
v 0.126399 0.187636 0.216630
v 0.092582 0.194147 0.241487
v 0.108866 0.190112 0.238326
v 0.124569 0.216686 0.211199
v 0.103014 0.203330 0.227727
v 0.086434 0.208177 0.232939
v 0.085250 0.211555 0.229352
v 0.133596 0.214365 0.206511
v 0.101418 0.206926 0.224269
v 0.081235 0.220262 0.224329
v 0.074868 0.182802 0.232128
vn -0.3358 0.5914 0.7332
vn -0.5387 -0.3287 0.7757
vn -0.6999 -0.4176 0.5794
vn -0.4228 0.4416 0.7914
vn -0.7219 -0.6803 -0.1269
vn -0.5143 -0.8576 0.0040
vn -0.8054 -0.2791 0.5229
vn -0.7012 -0.1715 0.6920
vn -0.5447 0.5104 0.6654
vn -0.2959 0.9004 0.3190
vn 0.0001 0.9999 0.0140
vn 0.0140 0.9603 0.2787
vn -0.2150 0.8111 0.5439
vn -0.6258 0.0182 0.7798
vn -0.2323 0.8637 0.4472
vn -0.4644 -0.7136 0.5246
vn -0.1945 0.9805 0.0285
vn -0.2409 0.9352 -0.2597
vn -0.3838 0.7249 -0.5720
vn -0.6562 0.7485 0.0950
vn -0.8038 -0.0894 -0.5881
vn -0.7753 -0.5904 0.2243
vn -0.3430 0.0052 -0.9393
vn -0.2531 -0.1553 -0.9549
vn -0.4395 -0.8388 -0.3213
vn -0.4083 -0.7246 0.5552
vn -0.3973 -0.8679 0.2982
vn -0.3099 -0.7957 -0.5205
vn -0.8767 -0.2623 0.4033
vn -0.7019 -0.6063 -0.3738
vn -0.7180 -0.0260 0.6956
vn -0.7007 0.6165 0.3590
vn -0.1838 0.8406 0.5095
vn -0.1728 0.9293 0.3264
vn -0.2096 0.9765 -0.0507
vn -0.1898 0.9795 0.0681
vn -0.7183 -0.6551 -0.2343
vn 0.0332 -0.8856 -0.4633
vn -0.0372 -0.3997 -0.9159
vn -0.5430 0.8387 -0.0428
vn 0.0372 0.9348 0.3533
vn 0.0319 0.9599 0.2786
vn 0.0082 0.9916 0.1295
vn 0.0010 0.9972 0.0751
vn 0.0062 0.9610 0.2766
vn -0.4912 -0.2351 0.8388
vn -0.3503 -0.2129 0.9121
vn -0.1498 -0.7878 -0.5975
vn -0.0332 -0.8016 -0.5969
vn -0.5377 -0.6852 0.4914
vn -0.0905 -0.8702 0.4843
vn -0.2704 -0.0853 0.9590
vn 0.2949 -0.7510 -0.5908
vn 0.0741 -0.8424 -0.5337
vn -0.0767 -0.6642 -0.7436
vn 0.3798 -0.7705 -0.5119
vn -0.5140 -0.8252 0.2344
vn 0.0941 -0.7478 -0.6572
vn -0.2570 -0.7755 -0.5767
vn -0.2260 -0.6250 -0.7472
vn -0.3921 -0.7921 0.4677
vn -0.1530 -0.9826 0.1052
vn 0.2156 -0.8945 -0.3916
vn 0.2708 -0.9610 0.0557
vn -0.6100 -0.5560 0.5646
vn 0.1588 0.3237 -0.9327
vn -0.8255 0.4149 -0.3827
vn 0.2544 -0.7351 -0.6284
vn 0.1539 -0.7576 -0.6343
vn 0.3353 -0.7002 -0.6303
vn 0.4372 -0.2741 -0.8566
vn 0.3164 -0.6585 -0.6828
vn 0.0569 -0.9428 -0.3285
vn -0.6029 0.6389 0.4777
vn 0.0151 0.8944 0.4469
vn 0.0740 -0.8807 -0.4679
vn -0.1592 -0.9829 0.0924
vn 0.1545 -0.7303 -0.6655
vn -0.6383 -0.5197 -0.5679
vn -0.8627 0.0347 0.5045
vn 0.6046 -0.0334 0.7958
vn -0.2975 0.6618 0.6881
vn -0.2451 0.7903 0.5616
vn 0.8155 0.2562 0.5190
vn 0.1568 -0.7387 -0.6555
vn 0.6738 -0.7095 -0.2064
vn 0.6456 -0.6879 -0.3317
vn 0.1451 -0.7495 -0.6459
vn -0.6045 -0.0831 -0.7923
vn -0.5867 -0.0549 -0.8080
vn -0.6181 0.7487 0.2395
vn -0.5205 0.8453 0.1206
vn -0.3829 0.9189 -0.0953
vn -0.0164 0.9520 -0.3057
vn -0.3293 -0.1912 0.9247
vn -0.0637 -0.4094 0.9101
vn 0.0814 -0.6508 0.7548
vn -0.1685 -0.7715 -0.6135
vn -0.0114 -0.4270 0.9042
vn -0.3889 0.6685 -0.6340
vn -0.0332 0.7636 -0.6448
vn -0.8818 -0.2712 0.3858
vn -0.7868 0.4359 -0.4370
vn 0.0057 -0.6942 0.7198
vn -0.3415 -0.6643 0.6649
vn 0.5925 -0.5304 -0.6063
vn -0.1960 -0.8184 -0.5402
vn -0.4873 0.5705 -0.6612
vn 0.1033 0.6743 -0.7312
vn 0.0826 0.4289 -0.8996
vn -0.3158 0.0982 -0.9437
vn 0.7693 -0.3277 -0.5484
vn 0.3507 -0.9336 -0.0736
vn 0.4291 -0.6452 0.6321
vn 0.9613 0.0776 -0.2643
vn -0.1207 -0.9318 0.3423
vn -0.1898 -0.7386 0.6469
vn 0.4965 0.4950 -0.7131
vn 0.3915 0.4610 -0.7963
vn -0.3240 -0.7871 0.5248
vn -0.9953 -0.0528 0.0810
vn -0.7423 -0.6076 -0.2825
vn -0.3560 -0.7678 0.5328
vn 0.5620 0.6822 -0.4678
vn 0.2026 0.9636 -0.1741
vn -0.1188 -0.9847 0.1275
vn 0.2805 -0.9072 -0.3136
vn -0.1348 0.9817 0.1343
vn -0.3376 -0.7607 0.5544
vn 0.7268 -0.3088 -0.6135
vn -0.6176 0.1579 0.7704
vn -0.6644 -0.7222 -0.1922
vn -0.3017 0.1483 -0.9418
vn -0.3049 -0.1344 -0.9428
vn -0.7141 -0.6601 -0.2331
vn -0.3698 -0.6751 0.6383
vn -0.4116 -0.6276 0.6609
vn 0.1269 0.4942 -0.8600
vn 0.4783 0.5639 -0.6732
vn 0.4812 0.4606 -0.7459
vn 0.1665 0.2804 -0.9453
vn 0.4692 -0.1932 0.8617
vn -0.1023 -0.5139 0.8517
vn -0.1594 -0.3889 0.9074
vn 0.3953 0.1531 0.9057
vn 0.9315 0.3479 0.1060
vn 0.7909 0.6120 -0.0002
vn 0.2885 0.6471 0.7058
vn 0.5061 0.8623 -0.0164
vn 0.4755 0.5541 -0.6833
vn -0.0890 -0.3738 -0.9232
vn -0.6601 -0.7389 0.1353
vn -0.4646 -0.3020 0.8325
vn 0.1795 -0.0612 -0.9818
vn -0.0023 0.1777 0.9841
vn -0.5950 0.7491 0.2913
vn -0.2199 0.8580 0.4642
vn 0.7178 0.6954 -0.0346
vn 0.5719 -0.6930 -0.4389
vn -0.9046 -0.3226 -0.2785
vn 0.0860 -0.9182 -0.3866
vn 0.7863 0.6155 0.0535
vn -0.1658 0.7982 0.5791
vn -0.1300 0.9060 0.4028
vn 0.1769 0.8557 -0.4864
vn 0.1095 -0.8967 -0.4288
vn 0.5396 -0.4672 -0.7004
vn 0.2801 -0.6424 -0.7134
vn 0.1095 -0.8146 -0.5696
vn -0.4275 0.7682 0.4766
vn -0.8849 -0.4207 0.2000
vn -0.8856 -0.4624 0.0440
vn -0.3459 0.7009 0.6238
vn 0.6071 -0.7724 -0.1869
vn 0.2786 -0.6842 -0.6740
vn 0.2628 -0.5914 0.7624
vn -0.6843 -0.2166 -0.6963
vn -0.3866 0.3832 0.8388
vn -0.7945 0.5169 0.3186
vn -0.5494 -0.8248 0.1336
vn -0.4619 -0.8383 0.2895
vn -0.2967 -0.8233 0.4840
vn 0.0458 -0.7712 -0.6350
vn -0.0080 -0.4110 -0.9116
vn 0.3050 -0.8337 -0.4604
vn -0.0353 -0.9776 -0.2077
vn 0.0577 -0.9938 -0.0947
vn -0.4093 -0.5672 0.7147
vn -0.7641 -0.6231 -0.1669
vn -0.6599 -0.4517 0.6003
vn -0.5561 -0.2745 0.7845
vn 0.9263 0.0260 -0.3760
vn 0.2847 -0.8724 -0.3972
vn 0.5167 0.1851 -0.8359
vn -0.0302 0.3472 -0.9373
vn 0.0086 0.1304 -0.9914
vn 0.0996 0.8370 -0.5380
vn 0.1338 0.9244 -0.3573
vn -0.2079 -0.6146 -0.7610
vn -0.1435 -0.0843 -0.9861
vn -0.2882 0.2781 0.9163
vn -0.1785 0.5824 0.7931
vn -0.0667 0.8638 0.4993
vn -0.3662 0.5816 0.7264
vn -0.3951 0.0970 0.9135
vn 0.0066 -0.7887 0.6147
vn 0.5236 0.7442 -0.4148
vn 0.7516 0.2338 -0.6167
vn 0.1359 -0.4773 -0.8682
vn 0.1322 0.9610 -0.2427
vn 0.0483 0.9462 -0.3201
vn 0.0518 0.9941 -0.0951
vn 0.1127 0.9861 -0.1220
vn -0.1327 0.7821 0.6088
vn -0.3436 0.4209 0.8395
vn -0.1583 -0.7434 0.6499
vn -0.2486 -0.2939 0.9229
vn -0.3315 -0.0552 0.9418
vn 0.0106 -0.9589 -0.2836
vn -0.2766 0.1297 -0.9522
vn -0.4435 0.0096 -0.8962
vn -0.3952 -0.7333 -0.5532
vn -0.7000 -0.6641 0.2628
vn -0.5423 -0.8399 0.0231
vn -0.5657 -0.6786 0.4685
vn -0.0906 0.8394 0.5359
vn -0.1466 0.8475 0.5101
vn -0.0831 0.0073 0.9965
vn 0.1748 -0.0160 0.9845
vn -0.1373 0.6067 -0.7830
vn -0.0730 0.9281 -0.3650
vn -0.4631 -0.3960 0.7930
vn -0.6277 -0.5381 0.5626
vn -0.2615 -0.9606 0.0944
vn 0.0955 -0.7500 0.6545
vn -0.4583 -0.7144 0.5289
vn -0.6898 -0.5900 -0.4196
vn 0.0005 -0.9523 0.3053
vn -0.2020 -0.9118 0.3575
vn -0.1512 -0.9003 0.4082
vn -0.2665 0.4406 -0.8573
vn -0.0007 0.9946 0.1035
vn -0.0041 0.9494 -0.3141
vn -0.0621 0.9796 0.1910
vn 0.7056 0.7085 0.0148
vn 0.0532 -0.8860 0.4606
vn 0.0722 -0.5868 0.8065
vn 0.0645 -0.7707 0.6339
vn -0.3849 0.5675 0.7279
vn -0.0212 0.6451 0.7638
vn -0.2608 0.4499 0.8542
vn -0.2866 0.4474 0.8472
vn 0.0529 0.6968 0.7153
vn -0.3263 -0.0145 0.9452
vn -0.1332 -0.3186 0.9385
vn -0.1129 -0.6162 0.7794
vn -0.1856 0.1420 0.9723
vn -0.0882 0.4132 0.9064
vn -0.0657 0.3908 0.9181
vn -0.2359 -0.0443 0.9708
vn -0.1066 -0.7542 0.6479
vn -0.2643 -0.7417 -0.6164
vn 0.0336 0.3560 0.9339
vn -0.0055 0.2928 0.9562
vn -0.0851 0.2793 0.9564
vn -0.1755 0.1365 0.9750
vn 0.7268 0.2956 0.6200
vn 0.4312 0.8868 0.1662
vn -0.0166 0.4392 0.8983
vn -0.0094 0.3957 0.9183
vn -0.0194 0.3887 0.9212
vn -0.1662 0.5139 0.8416
vn -0.3782 -0.0622 0.9237
vn -0.0680 -0.7163 0.6945
vn 0.0320 -0.3154 0.9484
vn 0.8955 -0.3913 0.2121
vn 0.5821 -0.7472 0.3207
vn -0.0243 -0.8519 0.5232
vn 0.2105 -0.3470 0.9139
vn -0.0401 -0.1107 0.9930
vn -0.0045 -0.2777 0.9606
vn 0.0078 -0.0696 0.9975
vn -0.3829 0.3589 0.8512
vn 0.0238 0.2295 0.9730
vn -0.2631 0.0901 0.9606
vn -0.2173 -0.8486 0.4824
vn -0.2459 -0.8567 0.4535
vn -0.0180 0.7379 0.6746
vn -0.0034 0.9372 0.3488
vn 0.2522 -0.8424 0.4762
vn -0.0353 0.6292 -0.7764
vn -0.2362 -0.2112 0.9485
vn -0.2087 -0.3058 0.9290
vn -0.1713 -0.8131 -0.5563
vn -0.3153 0.6726 0.6695
vn -0.3788 -0.3109 0.8717
vn -0.4703 0.3310 0.8181
vn -0.5210 0.0249 0.8532
vn -0.0855 -0.3545 0.9311
vn 0.0875 -0.5207 -0.8492
vn 0.2769 0.1000 0.9557
vn -0.1086 -0.2449 0.9635
vn -0.1417 -0.2743 0.9511
vn -0.0128 0.8049 -0.5933
vn -0.3615 0.1382 0.9221
vn -0.2468 -0.1191 0.9617
vn -0.3169 -0.9274 -0.1985
vn -0.3727 0.1751 0.9113
vn -0.3908 0.2382 0.8891
vn -0.3308 0.0348 0.9431
vn -0.0931 0.1921 -0.9770
vn 0.0766 0.9137 -0.3992
vn -0.3489 0.6594 0.6659
vn -0.6508 0.1276 0.7484
vn -0.5770 -0.4669 0.6701
vn -0.3198 -0.7417 0.5896
vn -0.2059 -0.7246 0.6577
vn -0.6656 0.1458 0.7320
vn -0.4680 -0.2843 0.8367
vn -0.3743 -0.5833 0.7208
vn -0.3086 -0.7852 0.5369
vn -0.0721 0.6804 0.7293
vn -0.3543 0.8246 0.4410
vn -0.7747 0.1244 0.6199
vn 0.6098 0.2693 0.7454
vn -0.4223 -0.5299 0.7355
vn -0.3178 -0.7540 0.5749
vn -0.2964 -0.5436 0.7853
vn -0.4134 -0.1882 0.8909
vn 0.1530 0.1617 0.9749
vn -0.0897 -0.2766 0.9568
vn 0.0420 -0.0912 0.9949
vn -0.1703 -0.0084 0.9854
vn -0.1285 -0.8904 0.4366
vn -0.2593 -0.1658 0.9515
vn -0.2136 -0.0288 0.9765
vn -0.2346 -0.1031 0.9666
vn 0.1331 0.9775 -0.1633
vn 0.1544 0.9815 -0.1129
vn -0.4538 0.6263 0.6340
vn -0.4057 -0.3021 0.8626
vn -0.2576 -0.2946 0.9202
vn -0.3728 0.6610 0.6513
vn -0.0449 0.9533 0.2986
vn -0.0963 0.8724 0.4792
vn -0.0184 -0.2890 -0.9572
vn -0.0251 0.9051 -0.4244
vn 0.0080 0.9795 -0.2014
vn -0.0145 -0.9990 -0.0412
vn 0.2260 -0.9675 -0.1130
vn 0.2039 -0.9779 0.0471
vn 0.0386 -0.9975 0.0583
vn 0.2585 -0.3073 0.9158
vn 0.0392 -0.3574 0.9331
vn 0.0244 -0.9870 0.1586
vn 0.1929 -0.7103 -0.6769
vn 0.7927 -0.5197 -0.3187
vn 0.5943 -0.5598 0.5774
vn 0.1578 0.0670 -0.9852
vn 0.7894 0.3612 -0.4964
vn 0.6052 0.4847 0.6315
vn 0.0860 0.6578 -0.7483
vn 0.3334 0.8301 -0.4470
vn -0.0147 0.9861 -0.1657
vn 0.2123 0.9448 0.2495
vn 0.1476 -0.3746 0.9154
vn -0.1096 -0.6471 0.7544
vn 0.1074 0.2307 0.9671
vn -0.1534 -0.0785 0.9850
vn -0.1858 0.6769 0.7122
vn 0.0329 0.6884 0.7246
vn -0.2004 -0.9532 -0.2263
vn -0.0546 -0.6925 -0.7193
vn -0.4937 -0.6197 -0.6101
vn -0.1119 -0.2603 -0.9590
vn -0.1198 0.3598 -0.9253
vn -0.6555 0.4666 -0.5939
vn -0.2890 -0.8326 0.4724
vn -0.6615 -0.4933 0.5649
vn -0.8594 0.3668 0.3562
vn 0.2627 -0.9617 -0.0777
vn 0.2783 -0.9581 0.0677
vn 0.0578 -0.9316 0.3589
vn -0.0759 -0.8837 0.4618
vn 0.0046 0.8704 0.4924
vn -0.0333 0.8761 0.4810
vn 0.5451 -0.4477 0.7088
vn -0.6279 -0.7545 0.1909
vn 0.0089 -0.8203 -0.5719
vn -0.4430 0.4909 0.7502
vn -0.4202 0.5108 0.7500
vn -0.7238 -0.6350 0.2702
vn -0.0048 -0.8433 -0.5374
vn -0.4894 0.7259 0.4833
vn -0.9651 -0.2609 0.0238
vn -0.0361 -0.8796 -0.4743
vn -0.3635 0.9219 0.1340
vn -0.8820 0.0179 -0.4708
vn -0.0542 -0.8997 -0.4331
vn -0.3197 0.9443 -0.0784
vn -0.6887 0.0503 -0.7233
vn -0.0505 -0.9211 -0.3860
vn -0.4116 0.8969 -0.1613
vn -0.7173 -0.0043 -0.6967
vn -0.1619 -0.8655 -0.4740
vn 0.2538 0.6563 -0.7105
vn 0.0099 -0.0513 -0.9986
vn 0.0048 0.8555 0.5178
vn 0.0066 0.8375 0.5463
vn 0.0072 0.8738 0.4861
vn 0.0537 0.9275 0.3699
vn 0.1520 0.9416 0.3004
vn 0.3174 0.9440 0.0900
vn -0.0153 0.2547 0.9669
vn -0.3254 0.0331 0.9450
vn -0.4128 0.2812 0.8663
vn -0.4210 -0.4910 0.7627
vn -0.2767 -0.2518 0.9274
vn -0.2361 -0.2594 0.9365
vn -0.1885 0.0175 0.9819
vn 0.0116 -0.9061 0.4228
vn -0.1700 -0.0899 0.9813
vn -0.0917 -0.6788 0.7286
vn -0.0084 -0.4725 0.8813
vn -0.4659 -0.0621 0.8826
vn -0.3649 -0.3874 0.8466
vn -0.2926 -0.1703 0.9409
vn 0.4401 0.7304 -0.5224
vn 0.3420 0.8331 -0.4346
vn 0.4526 0.3448 -0.8224
vn 0.4836 0.4359 -0.7591
vn 0.4326 -0.3771 -0.8189
vn 0.4247 -0.1136 -0.8982
vn 0.8476 -0.5164 -0.1218
vn 0.9559 0.2330 -0.1788
vn 0.3680 0.8940 -0.2557
vn 0.2202 0.9658 -0.1370
vn 0.2316 0.9700 -0.0737
vn 0.8377 0.4335 -0.3320
vn 0.7129 0.6492 -0.2654
vn 0.7771 0.5714 -0.2638
vn 0.5985 0.7221 0.3470
vn 0.8029 0.3953 0.4462
vn 0.5450 0.7906 0.2793
vn 0.4165 0.8281 0.3752
vn 0.5799 0.6319 0.5141
vn 0.9284 0.3584 0.0978
vn 0.4598 0.2209 -0.8601
vn 0.6355 0.3493 -0.6886
vn 0.6954 0.3355 0.6355
vn 0.9275 0.2692 0.2593
vn 0.1824 -0.9697 -0.1627
vn 0.2548 -0.6616 -0.7053
vn 0.4804 -0.8762 -0.0397
vn 0.3449 -0.7890 -0.5085
vn 0.3845 0.9220 -0.0452
vn 0.7224 0.4496 0.5254
vn 0.2995 0.9538 0.0230
vn 0.3505 0.9309 0.1030
vn 0.2732 0.9258 0.2612
vn 0.3398 0.9225 0.1829
vn 0.9303 -0.3370 -0.1444
vn 0.4324 0.8377 0.3335
vn 0.5600 -0.3984 0.7264
vn 0.2223 -0.6287 0.7452
vn 0.6774 -0.0069 0.7356
vn 0.2284 -0.8379 0.4958
vn 0.7255 -0.4066 0.5552
vn -0.4331 -0.7352 -0.5215
vn -0.5962 -0.7043 -0.3855
vn -0.1838 -0.6629 -0.7258
vn 0.9164 -0.0361 0.3987
vn 0.4146 -0.3544 -0.8382
vn 0.6499 0.0315 -0.7594
vn -0.1283 -0.5136 -0.8484
vn 0.1482 -0.9695 0.1953
vn 0.4634 -0.6610 0.5902
vn -0.2509 -0.9610 0.1161
vn -0.2476 -0.9575 -0.1480
vn 0.7456 0.0853 0.6609
vn 0.4372 0.8180 -0.3738
vn -0.0992 0.5146 -0.8517
vn -0.4124 -0.8216 -0.3935
vn -0.5680 -0.7859 -0.2445
vn -0.2800 -0.6902 -0.6672
vn -0.4853 -0.1847 -0.8546
vn -0.4204 -0.7352 -0.5317
vn -0.3432 -0.9386 0.0357
vn 0.6106 0.7296 0.3080
vn -0.2117 -0.8720 -0.4414
vn 0.5042 -0.8629 -0.0330
vn 0.3095 -0.7944 -0.5226
vn -0.3362 0.4904 0.8040
vn -0.3861 0.5811 0.7164
vn 0.5094 0.7974 0.3236
vn 0.6870 0.4995 0.5277
vn -0.4369 -0.8019 -0.4075
vn -0.4154 -0.8246 -0.3841
vn -0.8541 -0.1884 0.4849
vn -0.8652 -0.1754 0.4698
vn 0.3344 -0.6973 -0.6340
vn 0.4087 -0.3936 -0.8234
vn 0.9386 -0.1732 -0.2984
vn 0.8014 0.4314 -0.4143
vn 0.2377 0.9372 -0.2553
vn 0.2993 -0.5864 0.7527
vn -0.0952 -0.2808 0.9550
vn 0.1626 -0.7676 -0.6200
vn 0.2483 0.7970 -0.5506
vn 0.4338 0.8276 -0.3563
vn 0.8078 0.5218 0.2741
vn 0.4727 -0.5002 0.7255
vn -0.7083 -0.6893 -0.1518
vn 0.2758 0.5649 -0.7777
vn 0.1693 0.1495 -0.9742
vn -0.0862 0.4316 -0.8979
vn -0.1016 0.6153 -0.7817
vn -0.7665 -0.4740 -0.4334
vn -0.9964 -0.0002 0.0852
vn -0.2651 -0.6634 0.6997
vn -0.2828 -0.9479 0.1465
vn 0.1648 -0.7581 0.6310
vn 0.1329 -0.8953 0.4252
vn -0.4997 0.4334 -0.7500
vn -0.4285 0.5038 -0.7501
vn 0.3469 -0.7487 0.5648
vn 0.3552 -0.8338 0.4227
vn 0.6161 -0.6221 -0.4831
vn 0.9959 -0.0483 -0.0767
vn -0.1426 0.9552 -0.2593
vn -0.5905 0.5494 -0.5911
vn -0.2426 -0.9612 -0.1310
vn 0.1692 -0.9314 0.3223
vn 0.2329 0.9722 0.0255
vn 0.3740 -0.6310 0.6796
vn -0.6895 -0.5159 -0.5083
vn 0.6895 0.2912 0.6632
vn 0.5589 -0.6689 -0.4901
vn 0.6583 -0.4538 -0.6007
vn 0.1348 0.3012 -0.9440
vn 0.1569 0.3631 -0.9184
vn 0.3684 -0.8118 0.4530
vn 0.3809 -0.8441 0.3773
vn -0.1232 0.6399 -0.7585
vn -0.1307 0.6128 -0.7793
vn -0.4967 0.7862 -0.3676
vn -0.5135 0.7763 -0.3657
vn -0.2948 -0.4000 0.8678
vn -0.2122 -0.2944 0.9318
vn 0.1583 -0.6461 0.7467
vn 0.1089 -0.6572 0.7458
vn -0.8237 0.2581 0.5048
vn -0.6594 0.5225 0.5405
vn -0.4258 0.7498 0.5065
vn -0.1702 0.1324 0.9765
vn -0.3862 0.8975 -0.2129
vn 0.7946 -0.4925 -0.3551
vn -0.0442 0.2589 -0.9649
vn 0.3927 -0.6956 0.6017
vn -0.1404 0.4135 -0.8996
vn 0.0827 -0.1956 0.9772
vn 0.4177 0.8977 0.1400
vn 0.6426 0.6150 -0.4570
vn -0.7632 -0.3265 0.5576
vn -0.3403 0.5994 0.7245
vn 0.4392 -0.5398 -0.7182
vn -0.3415 -0.9111 -0.2309
vn -0.3345 0.5421 0.7708
vn -0.2273 0.7379 0.6354
vn 0.1092 0.9927 -0.0503
vn 0.3191 0.8969 0.3060
vn -0.2381 -0.9700 -0.0490
vn -0.1689 -0.9524 -0.2537
vn -0.4919 -0.7227 0.4856
vn -0.6695 -0.4009 0.6253
vn 0.5409 0.7576 -0.3653
vn 0.3723 0.8735 -0.3137
vn 0.4853 -0.2644 -0.8334
vn 0.3909 -0.2743 -0.8786
vn -0.5018 -0.7648 -0.4040
vn -0.8398 -0.3412 0.4224
vn -0.3210 0.1127 0.9403
vn 0.3285 -0.7555 -0.5669
vn 0.6242 -0.1484 0.7671
vn 0.7833 -0.6084 -0.1276
vn 0.9305 0.2383 0.2781
vn 0.6549 -0.3604 0.6642
vn 0.8668 -0.4073 0.2877
vn -0.1016 -0.4546 -0.8849
vn -0.5905 -0.6453 -0.4847
vn 0.0319 0.0445 -0.9985
vn 0.0352 -0.9563 -0.2904
vn 0.7213 -0.4329 -0.5406
vn 0.0210 -0.9944 -0.1034
vn 0.7682 -0.3515 -0.5351
vn 0.5208 -0.6100 0.5973
vn 0.5361 -0.8357 0.1188
vn -0.6205 -0.2380 0.7472
vn -0.7471 -0.1356 0.6508
vn -0.3001 -0.9045 0.3031
vn 0.0621 0.4941 -0.8672
vn -0.1182 0.9528 -0.2796
vn -0.0732 0.8912 -0.4476
vn 0.0773 0.3957 -0.9151
vn 0.2607 -0.5585 -0.7875
vn 0.1979 0.2155 -0.9562
vn 0.3793 0.3640 0.8507
vn 0.3683 0.7131 0.5965
vn 0.0911 0.9071 0.4109
vn 0.0943 0.6608 0.7446
vn 0.7313 0.6039 0.3169
vn 0.7459 -0.6537 0.1274
vn -0.5975 0.3219 0.7344
vn -0.2916 0.0844 -0.9528
vn -0.8060 0.5500 -0.2189
vn -0.1796 0.9625 -0.2031
vn -0.1595 0.9829 -0.0921
vn -0.0826 0.9933 -0.0807
vn -0.0864 0.9498 -0.3007
vn 0.1930 0.9811 -0.0169
vn 0.5328 0.7923 -0.2974
vn 0.1027 -0.8207 0.5620
vn 0.2465 -0.2258 0.9425
vn 0.1433 -0.4699 0.8710
vn -0.0196 -0.9967 0.0788
vn 0.2728 0.3387 -0.9005
vn 0.7634 -0.3216 -0.5601
vn 0.4042 0.4696 -0.7850
vn 0.8483 -0.3316 0.4128
vn 0.7564 -0.2152 0.6178
vn 0.9249 -0.1322 0.3565
vn -0.0059 0.8780 0.4786
vn 0.0127 0.2053 0.9786
vn 0.4160 0.3324 0.8464
vn 0.1358 0.9832 0.1217
vn 0.1187 0.6872 -0.7167
vn 0.0605 0.9370 -0.3439
vn 0.2712 -0.8339 0.4807
vn 0.1970 -0.8820 0.4281
vn 0.1424 -0.9088 -0.3921
vn 0.3634 -0.9197 -0.1488
vn 0.7429 0.1079 0.6606
vn 0.8908 0.2549 -0.3762
vn 0.2640 -0.8830 0.3881
vn 0.3019 -0.8236 0.4802
vn 0.2230 0.6140 -0.7571
vn 0.0703 0.9877 0.1399
vn -0.5200 0.6493 0.5550
vn 0.2569 -0.4159 0.8724
vn 0.2137 0.9631 0.1635
vn 0.2543 0.7488 0.6120
vn 0.2297 0.7195 0.6554
vn 0.2658 -0.4733 0.8398
vn 0.0839 -0.7364 0.6714
vn 0.0658 -0.7726 0.6314
vn 0.1017 -0.1630 0.9814
vn 0.1503 -0.3922 0.9075
vn 0.0175 0.0943 0.9954
vn 0.0257 0.1005 0.9946
vn 0.7219 -0.4980 0.4805
vn 0.1347 -0.2645 -0.9549
vn 0.1895 0.4271 0.8841
vn 0.0772 0.3745 0.9240
vn -0.3217 -0.0017 0.9468
vn -0.3755 0.6025 0.7042
vn -0.0195 0.2327 0.9724
vn 0.1434 0.3951 0.9074
vn -0.0350 0.1036 0.9940
vn -0.0371 0.1610 0.9863
vn 0.4137 0.1805 0.8923
vn -0.0465 -0.2390 0.9699
vn 0.1445 -0.6343 0.7595
vn -0.8224 -0.4726 0.3166
vn -0.4258 -0.8420 0.3312
vn -0.0222 -0.9952 0.0957
vn 0.0301 -0.7880 0.6149
vn -0.0443 -0.5272 0.8486
vn -0.0582 -0.3472 0.9360
vn 0.2678 0.1964 0.9433
vn 0.1235 -0.0461 0.9913
vn -0.0759 -0.0510 0.9958
vn 0.6385 -0.4904 0.5931
vn 0.5487 -0.6213 0.5593
vn -0.1261 -0.7654 0.6311
vn 0.1504 -0.6058 0.7813
vn 0.1463 -0.4961 0.8559
vn 0.2099 -0.9358 -0.2832
vn 0.3043 0.7100 0.6350
vn 0.2763 -0.1682 0.9462
vn 0.1848 -0.2164 0.9586
vn 0.4995 0.3604 0.7878
vn 0.4397 0.5011 0.7453
vn 0.0220 -0.5403 -0.8412
vn -0.1711 -0.3003 0.9384
vn 0.0550 -0.3408 0.9385
vn 0.0952 -0.5635 0.8206
vn 0.3378 0.6595 0.6715
vn 0.2657 0.2671 0.9263
vn 0.3990 -0.9163 -0.0355
vn 0.3808 0.6376 0.6696
vn 0.3788 0.5477 0.7460
vn 0.3367 0.7172 0.6101
vn 0.1351 0.4823 -0.8655
vn -0.0528 0.9828 -0.1768
vn 0.2309 0.8580 0.4588
vn 0.4464 0.7535 0.4827
vn 0.6168 -0.1678 0.7690
vn 0.7215 0.3154 0.6164
vn 0.3728 -0.2679 0.8884
vn 0.5417 0.0235 0.8402
vn 0.6365 0.3988 0.6602
vn 0.6824 0.2558 0.6847
vn 0.7381 -0.1862 0.6485
vn 0.0530 0.6937 0.7183
vn 0.6889 0.5430 0.4802
vn 0.3084 0.9143 0.2627
vn -0.3164 -0.0835 0.9449
vn 0.6381 0.5000 0.5855
vn 0.4407 0.6295 0.6400
vn 0.4388 -0.0388 0.8977
vn 0.7237 -0.0954 0.6835
vn -0.1304 0.2071 0.9696
vn 0.1843 -0.0053 0.9828
vn 0.1827 0.4847 0.8554
vn 0.1880 -0.8815 0.4331
vn 0.2507 0.2066 0.9457
vn 0.2328 0.2542 0.9387
vn -0.1245 0.9910 -0.0494
vn -0.1412 0.9874 -0.0712
vn 0.2396 0.9192 0.3125
vn 0.1994 0.8702 0.4505
vn 0.4434 0.2247 0.8677
vn 0.5028 0.0593 0.8623
vn -0.0059 0.9120 -0.4102
vn -0.1622 -0.9791 0.1229
vn -0.1724 -0.9837 0.0514
vn 0.0233 -0.9913 0.1297
vn -0.3082 -0.8098 0.4992
vn -0.4413 -0.8622 -0.2485
vn -0.1374 -0.7959 -0.5896
vn -0.2099 -0.1830 -0.9604
vn -0.8677 -0.2577 -0.4251
vn -0.7369 -0.1132 0.6664
vn -0.6503 0.5928 -0.4751
vn -0.1605 0.5773 -0.8006
vn -0.0200 0.9901 -0.1387
vn -0.4869 0.8051 0.3388
vn 0.1651 -0.5837 0.7950
vn -0.0719 -0.4795 0.8746
vn -0.1460 0.0495 0.9880
vn 0.1923 0.1341 0.9721
vn -0.1308 0.6472 0.7510
vn 0.1390 0.7707 0.6219
vn 0.1174 -0.6639 -0.7386
vn 0.4169 -0.8540 -0.3112
vn 0.7800 -0.0595 -0.6229
vn 0.1490 -0.1154 -0.9821
vn 0.3631 0.7773 -0.5138
vn 0.0848 0.4641 -0.8817
vn 0.5385 -0.6642 0.5185
vn 0.8616 0.0690 0.5028
vn 0.5225 0.7810 0.3420
vn -0.1910 -0.9769 0.0957
vn -0.1897 -0.9783 0.0835
vn -0.1399 -0.8167 0.5599
vn 0.0128 0.9610 0.2762
vn -0.4813 -0.5297 0.6985
vn 0.6912 -0.2496 -0.6782
vn 0.6000 0.7996 -0.0235
vn 0.6323 0.7601 -0.1498
vn 0.4533 -0.4366 -0.7771
vn 0.8586 0.5108 -0.0431
vn 0.4015 -0.7212 -0.5645
vn 0.9289 0.1295 0.3469
vn 0.3895 -0.8790 -0.2752
vn 0.9490 0.0208 0.3146
vn 0.4382 -0.8929 -0.1041
vn 0.9854 0.1105 -0.1292
vn 0.6094 -0.7405 -0.2835
vn 0.3496 0.6189 0.7033
vn 0.3366 0.7583 0.5583
vn 0.4305 0.0980 0.8973
vn 0.6335 -0.1008 0.7672
vn 0.3315 0.0311 0.9429
vn 0.2011 0.1929 0.9604
vn 0.1951 0.0497 0.9795
vn 0.2930 -0.5484 0.7832
vn 0.4572 0.7044 0.5429
vn 0.4125 0.2766 0.8680
vn 0.5464 0.3134 0.7767
vt 0.885547 0.562477
vt 0.885560 0.562494
vt 0.885609 0.562587
vt 0.885592 0.562562
vt 0.885632 0.562620
vt 0.885584 0.562529
vt 0.885675 0.562705
vt 0.885649 0.562665
vt 0.885627 0.562632
vt 0.885615 0.562613
vt 0.885611 0.562606
vt 0.885584 0.562552
vt 0.885584 0.562551
vt 0.885516 0.562411
vt 0.885506 0.562399
vt 0.885535 0.562435
vt 0.885474 0.562335
vt 0.885439 0.562267
vt 0.885442 0.562270
vt 0.885485 0.562352
vt 0.885459 0.562293
vt 0.885508 0.562385
vt 0.885421 0.562229
vt 0.885433 0.562244
vt 0.885489 0.562341
vt 0.885534 0.562425
vt 0.885562 0.562476
vt 0.885605 0.562561
vt 0.885691 0.562729
vt 0.885661 0.562669
vt 0.885670 0.562710
vt 0.885647 0.562674
vt 0.885543 0.562473
vt 0.885501 0.562391
vt 0.885435 0.562262
vt 0.885466 0.562324
vt 0.885397 0.562183
vt 0.885401 0.562189
vt 0.885420 0.562225
vt 0.885408 0.562209
vt 0.885541 0.562470
vt 0.885494 0.562381
vt 0.885461 0.562316
vt 0.885429 0.562253
vt 0.885401 0.562197
vt 0.885710 0.562777
vt 0.885717 0.562781
vt 0.885563 0.562478
vt 0.885609 0.562566
vt 0.885546 0.562438
vt 0.885565 0.562473
vt 0.885554 0.562462
vt 0.885496 0.562350
vt 0.885457 0.562280
vt 0.885444 0.562260
vt 0.885493 0.562347
vt 0.885509 0.562369
vt 0.885487 0.562327
vt 0.885490 0.562333
vt 0.885455 0.562278
vt 0.885544 0.562424
vt 0.885559 0.562452
vt 0.885557 0.562448
vt 0.885559 0.562460
vt 0.885528 0.562394
vt 0.885518 0.562375
vt 0.885517 0.562374
vt 0.885534 0.562413
vt 0.885508 0.562364
vt 0.885522 0.562399
vt 0.885529 0.562397
vt 0.885544 0.562424
vt 0.885554 0.562458
vt 0.885385 0.562164
vt 0.885376 0.562149
vt 0.885657 0.562659
vt 0.885708 0.562756
vt 0.885688 0.562710
vt 0.885693 0.562720
vt 0.885710 0.562756
vt 0.885751 0.562824
vt 0.885748 0.562816
vt 0.885763 0.562839
vt 0.885766 0.562846
vt 0.885719 0.562760
vt 0.885736 0.562793
vt 0.885752 0.562818
vt 0.885737 0.562788
vt 0.885724 0.562770
vt 0.885741 0.562797
vt 0.885737 0.562796
vt 0.885754 0.562821
vt 0.885633 0.562650
vt 0.885625 0.562638
vt 0.885725 0.562786
vt 0.885727 0.562800
vt 0.885732 0.562799
vt 0.885648 0.562643
vt 0.885720 0.562794
vt 0.885640 0.562669
vt 0.885633 0.562657
vt 0.885679 0.562733
vt 0.885656 0.562695
vt 0.885719 0.562800
vt 0.885706 0.562779
vt 0.885518 0.562393
vt 0.885539 0.562433
vt 0.885536 0.562397
vt 0.885537 0.562398
vt 0.885565 0.562446
vt 0.885565 0.562446
vt 0.885558 0.562439
vt 0.885569 0.562459
vt 0.885580 0.562476
vt 0.885575 0.562466
vt 0.885570 0.562462
vt 0.885581 0.562478
vt 0.885546 0.562416
vt 0.885570 0.562455
vt 0.885558 0.562439
vt 0.885545 0.562414
vt 0.885569 0.562454
vt 0.885575 0.562466
vt 0.885538 0.562404
vt 0.885528 0.562384
vt 0.885564 0.562454
vt 0.885562 0.562451
vt 0.885527 0.562383
vt 0.885551 0.562428
vt 0.885551 0.562429
vt 0.885537 0.562401
vt 0.859980 0.974349
vt 0.859979 0.974346
vt 0.859987 0.974360
vt 0.859987 0.974361
vt 0.859981 0.974353
vt 0.859987 0.974363
vt 0.859979 0.974346
vt 0.859980 0.974350
vt 0.859987 0.974362
vt 0.859987 0.974360
vt 0.859982 0.974357
vt 0.859982 0.974357
vt 0.859987 0.974365
vt 0.859987 0.974365
vt 0.859981 0.974353
vt 0.859987 0.974364
vt 0.859994 0.974378
vt 0.859996 0.974379
vt 0.859997 0.974381
vt 0.859998 0.974381
vt 0.859997 0.974380
vt 0.859996 0.974379
vt 0.859999 0.974381
vt 0.859994 0.974378
vt 0.885777 0.562857
vt 0.885783 0.562870
vt 0.885785 0.562874
vt 0.885776 0.562855
vt 0.885768 0.562840
vt 0.885765 0.562833
vt 0.885791 0.562884
vt 0.885790 0.562881
vt 0.885797 0.562892
vt 0.885797 0.562894
vt 0.885777 0.562853
vt 0.885785 0.562870
vt 0.885794 0.562885
vt 0.885789 0.562872
vt 0.885786 0.562872
vt 0.885779 0.562858
vt 0.885790 0.562877
vt 0.885795 0.562886
vt 0.885727 0.562780
vt 0.885706 0.562739
vt 0.885742 0.562811
vt 0.885711 0.562750
vt 0.885738 0.562802
vt 0.885726 0.562779
vt 0.885701 0.562781
vt 0.885713 0.562799
vt 0.885729 0.562833
vt 0.860021 0.974426
vt 0.860016 0.974416
vt 0.860018 0.974420
vt 0.860158 0.974692
vt 0.860166 0.974707
vt 0.860171 0.974719
vt 0.860152 0.974683
vt 0.860001 0.974387
vt 0.860011 0.974407
vt 0.860001 0.974390
vt 0.860179 0.974735
vt 0.860180 0.974735
vt 0.860167 0.974712
vt 0.885653 0.562702
vt 0.885653 0.562706
vt 0.885656 0.562713
vt 0.885655 0.562710
vt 0.885662 0.562720
vt 0.885660 0.562721
vt 0.885714 0.562817
vt 0.885712 0.562815
vt 0.885698 0.562789
vt 0.885701 0.562793
vt 0.860180 0.974735
vt 0.860182 0.974739
vt 0.860158 0.974698
vt 0.860173 0.974726
vt 0.860007 0.974400
vt 0.860015 0.974413
vt 0.038752 0.805013
vt 0.038760 0.805028
vt 0.860172 0.974723
vt 0.860171 0.974719
vt 0.027550 0.917170
vt 0.027846 0.918904
vt 0.027742 0.919631
vt 0.860175 0.974726
vt 0.885657 0.562704
vt 0.885669 0.562729
vt 0.885681 0.562752
vt 0.885690 0.562766
vt 0.885696 0.562780
vt 0.860176 0.974733
vt 0.860176 0.974731
vt 0.860187 0.974751
vt 0.860187 0.974750
vt 0.885645 0.562687
vt 0.860009 0.974405
vt 0.860016 0.974417
vt 0.860022 0.974428
vt 0.860012 0.974411
vt 0.885714 0.562810
vt 0.885684 0.562749
vt 0.859321 0.975055
vt 0.859331 0.975078
vt 0.859315 0.975046
vt 0.885642 0.562678
vt 0.885671 0.562741
vt 0.885656 0.562712
vt 0.885677 0.562751
vt 0.860002 0.974391
vt 0.859335 0.975084
vt 0.859337 0.975089
vt 0.859336 0.975088
vt 0.860178 0.974733
vt 0.860157 0.974696
vt 0.860155 0.974691
vt 0.868621 0.682077
vt 0.868621 0.682076
vt 0.868628 0.682088
vt 0.868628 0.682089
vt 0.860003 0.974394
vt 0.860006 0.974401
vt 0.027470 0.916044
vt 0.885660 0.562723
vt 0.885663 0.562728
vt 0.885662 0.562726
vt 0.885657 0.562717
vt 0.860188 0.974750
vt 0.860013 0.974408
vt 0.860155 0.974690
vt 0.868614 0.682065
vt 0.868606 0.682051
vt 0.868605 0.682050
vt 0.868614 0.682064
vt 0.860182 0.974741
vt 0.860177 0.974733
vt 0.885667 0.562735
vt 0.885668 0.562737
vt 0.885678 0.562753
vt 0.889296 0.538679
vt 0.889308 0.538707
vt 0.889296 0.538681
vt 0.860012 0.974410
vt 0.860015 0.974416
vt 0.860020 0.974424
vt 0.860011 0.974410
vt 0.860145 0.975157
vt 0.027486 0.915854
vt 0.027640 0.917217
vt 0.027982 0.921705
vt 0.027807 0.918862
vt 0.028169 0.922711
vt 0.859326 0.975069
vt 0.859317 0.975051
vt 0.885711 0.562813
vt 0.885697 0.562789
vt 0.860188 0.974750
vt 0.885638 0.562670
vt 0.885722 0.562831
vt 0.885662 0.562725
vt 0.885665 0.562728
vt 0.885684 0.562763
vt 0.885686 0.562764
vt 0.885681 0.562755
vt 0.885677 0.562746
vt 0.860004 0.974396
vt 0.860150 0.974679
vt 0.885666 0.562730
vt 0.885640 0.562679
vt 0.885728 0.562839
vt 0.885732 0.562847
vt 0.885726 0.562836
vt 0.885737 0.562852
vt 0.885733 0.562847
vt 0.885734 0.562847
vt 0.889353 0.538777
vt 0.889334 0.538748
vt 0.889328 0.538740
vt 0.889321 0.538732
vt 0.859328 0.975073
vt 0.885698 0.562786
vt 0.885710 0.562809
vt 0.885736 0.562849
vt 0.885740 0.562855
vt 0.889326 0.538732
vt 0.860003 0.974395
vt 0.859320 0.975057
vt 0.859318 0.975053
vt 0.859326 0.975070
vt 0.859329 0.975074
vt 0.859330 0.975077
vt 0.859328 0.975076
vt 0.889311 0.538707
vt 0.859331 0.975081
vt 0.859332 0.975083
vt 0.859329 0.975079
vt 0.885719 0.562809
vt 0.879531 0.666710
vt 0.879522 0.666696
vt 0.879524 0.666697
vt 0.022220 0.878963
vt 0.022223 0.878967
vt 0.022221 0.878964
vt 0.885430 0.562239
vt 0.038772 0.805051
vt 0.038783 0.805073
vt 0.038779 0.805068
vt 0.038771 0.805049
vt 0.022226 0.878971
vt 0.526103 0.786017
vt 0.526012 0.785811
vt 0.526027 0.785789
vt 0.526082 0.785956
vt 0.525818 0.785845
vt 0.525882 0.785836
vt 0.525918 0.786050
vt 0.525634 0.786100
vt 0.525720 0.786023
vt 0.525567 0.786425
vt 0.525706 0.786243
vt 0.526046 0.786220
vt 0.526036 0.786342
vt 0.525906 0.786363
vt 0.525851 0.786596
vt 0.525657 0.786631
vt 0.525739 0.786454
vt 0.525966 0.786198
vt 0.525932 0.785984
vt 0.525750 0.786396
vt 0.525763 0.786076
vt 0.525621 0.786222
vt 0.525584 0.786489
vt 0.525951 0.786421
vt 0.525787 0.786612
vt 0.525640 0.786658
vt 0.038782 0.805073
vt 0.885369 0.562128
vt 0.885373 0.562134
vt 0.885360 0.562113
vt 0.885329 0.562053
vt 0.885338 0.562067
vt 0.885341 0.562071
vt 0.885299 0.561993
vt 0.885306 0.562004
vt 0.885310 0.562009
vt 0.885262 0.561924
vt 0.885268 0.561931
vt 0.885272 0.561937
vt 0.885224 0.561850
vt 0.885229 0.561857
vt 0.885233 0.561862
vt 0.860406 0.975419
vt 0.860409 0.975422
vt 0.860448 0.975497
vt 0.860444 0.975491
vt 0.860412 0.975426
vt 0.860452 0.975502
vt 0.860398 0.975402
vt 0.860398 0.975403
vt 0.885351 0.562099
vt 0.885324 0.562045
vt 0.885293 0.561986
vt 0.885258 0.561917
vt 0.885220 0.561844
vt 0.860440 0.975486
vt 0.860403 0.975415
vt 0.885597 0.562505
vt 0.885596 0.562501
vt 0.885596 0.562500
vt 0.885597 0.562505
vt 0.885593 0.562493
vt 0.885593 0.562492
vt 0.885594 0.562496
vt 0.885594 0.562495
vt 0.868868 0.681920
vt 0.868858 0.681902
vt 0.868868 0.681918
vt 0.026205 0.877351
vt 0.026278 0.878193
vt 0.026156 0.877028
vt 0.026121 0.876499
vt 0.026144 0.876596
vt 0.859329 0.975077
vt 0.887232 0.562725
vt 0.887233 0.562727
vt 0.887229 0.562720
vt 0.887226 0.562715
vt 0.885711 0.562807
vt 0.885717 0.562818
vt 0.885721 0.562827
vt 0.885717 0.562819
vt 0.876411 0.768991
vt 0.876417 0.769000
vt 0.876421 0.769007
vt 0.879517 0.666687
vt 0.885741 0.562851
vt 0.885735 0.562842
vt 0.885728 0.562825
vt 0.876422 0.769009
vt 0.876431 0.769023
vt 0.879513 0.666680
vt 0.879516 0.666682
vt 0.879520 0.666690
vt 0.876413 0.768993
vt 0.888772 0.561150
vt 0.888774 0.561155
vt 0.888764 0.561136
vt 0.888771 0.561149
vt 0.888769 0.561144
vt 0.885748 0.562870
vt 0.859326 0.975070
vt 0.859331 0.975080
vt 0.859331 0.975078
vt 0.859333 0.975083
vt 0.885740 0.562858
vt 0.885750 0.562876
vt 0.887232 0.562724
vt 0.885740 0.562859
vt 0.885733 0.562846
vt 0.885725 0.562831
vt 0.885726 0.562834
vt 0.885721 0.562825
vt 0.885734 0.562848
vt 0.885739 0.562858
vt 0.885724 0.562834
vt 0.885735 0.562848
vt 0.885726 0.562832
s 1
usemtl material
f 27/1/1 28/2/2 25/3/3 26/4/4
f 24/5/5 25/3/3 28/2/2 29/6/6
f 80/7/7 79/8/8 25/3/3 24/5/5
f 79/8/8 78/9/9 26/4/4 25/3/3
f 77/10/10 20/11/11 2/12/12 44/13/13
f 67/14/14 28/2/2 27/1/1 68/15/15
f 66/16/16 29/6/6 28/2/2 67/14/14
f 30/17/17 33/18/18 34/19/19 31/20/20
f 34/19/19 35/21/21 32/22/22 31/20/20
f 34/19/19 37/23/23 54/24/24
f 32/22/22 35/21/21 38/25/25 39/26/26
f 49/27/27 40/28/28 29/6/6 66/16/16
f 81/29/29 80/7/7 24/5/5 41/30/30
f 78/9/9 79/8/8 42/31/31 87/32/32
f 26/4/4 78/9/9 77/10/10 44/13/13
f 45/33/33 27/1/1 26/4/4 44/13/13
f 68/15/15 27/1/1 45/33/33 69/34/34
f 36/35/35 33/18/18 30/17/17 46/36/36
f 48/37/37 7/38/38 8/39/39 37/23/23
f 33/18/18 36/35/35 70/40/40
f 45/33/33 44/13/13 2/12/12 3/41/41
f 69/34/34 45/33/33 3/41/41 17/42/42
f 36/35/35 46/36/36 4/43/43 5/44/44
f 70/40/40 36/35/35 5/44/44 18/45/45
f 71/46/46 80/7/7 81/29/29 83/47/47
f 13/48/48 10/49/49 40/28/28 49/27/27
f 39/26/26 50/50/50 51/51/51 76/52/52
f 96/53/53 90/54/54 9/55/55 15/56/56
f 38/25/25 52/57/57 50/50/50 39/26/26
f 90/54/54 53/58/58 56/59/59 55/60/60
f 38/25/25 35/21/21 54/24/24 55/60/60
f 56/59/59 52/57/57 38/25/25 55/60/60
f 50/50/50 57/61/61 58/62/62 51/51/51
f 58/62/62 64/63/63 63/64/64 51/51/51
f 52/57/57 59/65/65 57/61/61 50/50/50
f 53/58/58 60/66/66 61/67/67 56/59/59
f 56/59/59 61/67/67 59/65/65 52/57/57
f 92/68/68 62/69/69 96/53/53 95/70/70
f 65/71/71 60/66/66 53/58/58 62/69/69
f 93/72/72 65/71/71 62/69/69 92/68/68
f 66/16/16 32/22/22 39/26/26 76/52/52
f 31/20/20 32/22/22 66/16/16 67/14/14
f 30/17/17 31/20/20 67/14/14 68/15/15
f 46/36/36 30/17/17 68/15/15 69/34/34
f 46/36/36 69/34/34 17/42/42 4/43/43
f 51/51/51 63/64/64 94/73/73 49/27/27
f 47/74/74 48/37/37 37/23/23 70/40/40
f 47/74/74 70/40/40 18/45/45 6/75/75
f 42/31/31 79/8/8 80/7/7 71/46/46
f 11/76/76 21/77/77 74/78/78
f 41/30/30 75/79/79 82/80/80 81/29/29
f 328/81/81 330/82/82 133/83/83 136/84/84
f 324/85/85 326/86/86 135/87/87 138/88/88
f 322/89/89 324/85/85 138/88/88 137/90/90
f 319/91/91 322/89/89 137/90/90 134/92/92
f 51/51/51 49/27/27 76/52/52
f 66/16/16 76/52/52 49/27/27
f 43/93/93 1/94/94 20/11/11 77/10/10
f 73/95/95 83/47/47 81/29/29 82/80/80
f 330/82/82 319/91/91 134/92/92 133/83/83
f 326/86/86 328/81/81 136/84/84 135/87/87
f 12/96/96 72/97/97 21/77/77
f 11/76/76 89/98/98 40/28/28 10/49/49
f 24/5/5 29/6/6 40/28/28 89/98/98
f 83/47/47 12/96/96 19/99/99 71/46/46
f 73/95/95 72/97/97 12/96/96 83/47/47
f 43/93/93 84/100/100 22/101/101 1/94/94
f 42/31/31 85/102/102 88/103/103 87/32/32
f 19/99/99 23/104/104 86/105/105 71/46/46
f 71/46/46 86/105/105 85/102/102 42/31/31
f 43/93/93 77/10/10 78/9/9 87/32/32
f 88/103/103 84/100/100 43/93/93 87/32/32
f 89/98/98 11/76/76 74/78/78
f 24/5/5 89/98/98 41/30/30
f 9/55/55 90/54/54 55/60/60
f 62/69/69 53/58/58 90/54/54 96/53/53
f 64/63/63 93/72/72 92/68/68 63/64/64
f 63/64/64 92/68/68 95/70/70 94/73/73
f 95/70/70 96/53/53 15/56/56 91/106/106
f 94/73/73 95/70/70 91/106/106 16/107/107
f 94/73/73 16/107/107 13/48/48
f 49/27/27 94/73/73 13/48/48
f 33/18/18 37/23/23 34/19/19
f 339/108/108 338/109/109 100/110/110 101/111/111
f 346/112/112 341/113/113 102/114/114 104/115/115
f 341/113/113 333/116/116 98/117/117 102/114/114
f 343/118/118 346/112/112 104/115/115 103/119/119
f 332/120/120 336/121/121 99/122/122 97/123/123
f 338/109/109 343/118/118 103/119/119 100/110/110
f 336/121/121 339/108/108 101/111/111 99/122/122
f 60/66/66 65/71/71 344/124/124 337/125/125
f 64/63/63 58/62/62 334/126/126 342/127/127
f 61/67/67 60/66/66 337/125/125 340/128/128
f 58/62/62 57/61/61 331/129/129 334/126/126
f 93/72/72 64/63/63 342/127/127 345/130/130
f 65/71/71 93/72/72 345/130/130 344/124/124
f 59/65/65 61/67/67 340/128/128 335/131/131
f 57/61/61 59/65/65 335/131/131 331/129/129
f 356/132/132 353/133/133 109/134/134 107/135/135
f 357/136/136 356/132/132 107/135/135 105/137/137
f 358/138/138 354/139/139 111/140/140 108/141/141
f 359/142/142 355/143/143 106/144/144 110/145/145
f 353/133/133 358/138/138 108/141/141 109/134/134
f 355/143/143 357/136/136 105/137/137 106/144/144
f 360/146/146 359/142/142 110/145/145 112/147/147
f 354/139/139 360/146/146 112/147/147 111/140/140
f 112/147/147 110/145/145 118/148/148 120/149/149
f 111/140/140 112/147/147 120/149/149 119/150/150
f 107/135/135 109/134/134 117/151/151 115/152/152
f 105/137/137 107/135/135 115/152/152 113/153/153
f 108/141/141 111/140/140 119/150/150 116/154/154
f 110/145/145 106/144/144 114/155/155 118/148/148
f 109/134/134 108/141/141 116/154/154 117/151/151
f 106/144/144 105/137/137 113/153/153 114/155/155
f 74/78/78 75/79/79 41/30/30 89/98/98
f 133/83/83 134/92/92 121/156/156 126/157/157
f 135/87/87 136/84/84 125/158/158 124/159/159
f 134/92/92 137/90/90 122/160/160 121/156/156
f 136/84/84 133/83/83 126/157/157 125/158/158
f 138/88/88 135/87/87 124/159/159 123/161/161
f 137/90/90 138/88/88 123/161/161 122/160/160
f 347/162/162 348/163/163 132/164/164 131/165/165
f 349/166/166 350/167/167 130/168/168 129/169/169
f 351/170/170 352/171/171 128/172/172 127/173/173
f 348/163/163 351/170/170 127/173/173 132/164/164
f 350/167/167 347/162/162 131/165/165 130/168/168
f 352/171/171 349/166/166 129/169/169 128/172/172
f 21/77/77 325/174/174 323/175/175 74/78/78
f 72/97/97 327/176/176 325/174/174 21/77/77
f 333/116/116 332/120/120 97/123/123 98/117/117
f 75/79/79 74/78/78 323/175/175 321/177/177
f 73/95/95 329/178/178 327/176/176 72/97/97
f 82/80/80 75/79/79 321/177/177 320/179/179
f 174/180/180 173/181/181 210/182/182
f 245/183/183 211/184/184 171/185/185
f 241/186/186 240/187/187 235/188/188 128/189/172
f 201/190/189 142/191/190 154/192/191 115/152/152
f 228/193/192 239/194/193 226/195/194
f 169/196/195 225/197/196 224/198/197 222/199/198
f 219/200/199 251/201/200 225/197/196
f 184/202/201 182/203/202 165/204/203 181/205/204
f 232/206/205 235/188/188 234/207/206
f 226/195/194 131/208/165 220/209/207 228/193/192
f 116/154/154 148/210/208 187/211/209
f 198/212/210 206/213/211 286/213/212 283/212/213
f 214/214/214 233/215/215 232/206/205
f 244/216/216 202/217/217 212/218/218
f 238/219/219 234/207/206 235/188/188 240/187/187
f 169/196/220 246/220/221 223/221/222
f 170/222/223 175/223/224 176/224/225
f 217/225/226 216/226/227 231/227/228 230/228/229
f 168/229/230 169/196/220 222/199/231
f 156/230/232 143/231/233 221/232/234 157/233/235
f 174/180/180 177/234/236 175/223/224
f 174/180/180 172/235/237 173/181/181
f 172/235/237 174/180/180 175/223/224
f 88/103/103 85/102/102 172/235/237 246/220/221
f 166/236/238 209/237/239 371/238/240
f 88/103/103 246/220/221 248/239/241 84/100/100
f 145/240/242 152/241/243 222/199/231 242/242/244
f 148/210/208 119/150/150 120/149/149 162/243/245
f 186/244/246 208/245/247 207/246/248
f 214/214/214 215/247/249 132/248/164 127/249/173
f 369/250/250 368/251/251 255/252/252 252/253/253
f 117/151/151 201/190/189 115/152/152
f 233/215/215 214/214/214 127/249/173
f 155/254/254 156/230/232 157/233/235 158/255/255
f 153/256/256 202/217/217 244/216/216
f 243/257/257 153/258/258 167/259/259 151/260/260
f 236/261/261 231/227/228 215/247/249 234/207/206
f 199/262/262 211/184/184 245/183/183 221/232/234
f 239/194/193 130/263/168 226/195/194
f 127/249/173 128/189/172 235/188/188
f 227/264/263 140/265/264 183/266/265 200/267/266
f 228/193/192 220/209/207 229/268/267
f 229/268/267 220/209/207 131/208/165
f 229/268/267 131/208/165 218/269/268
f 86/105/105 173/181/181 172/235/237 85/102/102
f 218/269/268 131/208/165 217/225/226
f 242/242/269 213/270/270 244/271/271 212/272/272
f 231/227/228 216/226/227 215/247/249
f 188/273/273 361/274/274 185/275/275
f 232/206/205 215/247/249 214/214/214
f 132/248/164 215/247/249 216/226/227
f 234/207/206 238/219/219 236/261/261
f 148/210/208 147/276/276 187/211/209
f 147/276/276 146/277/277 187/211/209
f 171/185/185 187/211/209 146/277/277
f 144/278/278 146/277/277 159/279/279
f 230/228/229 229/268/267 218/269/268 217/225/226
f 144/278/278 221/232/234 245/183/183
f 157/233/235 221/232/234 158/255/255
f 199/262/262 221/232/234 143/231/233
f 143/231/233 142/191/190 199/262/262
f 143/231/233 156/230/232 142/191/190
f 142/191/190 201/190/189 199/262/262
f 156/230/232 155/254/254 142/191/190
f 154/192/191 142/191/190 155/254/254
f 208/280/247 282/280/280 207/280/248
f 243/281/281 250/282/282 202/217/217
f 212/218/218 202/217/217 141/283/283
f 202/217/217 192/284/284 163/285/285
f 244/271/271 213/270/270 167/259/259 153/258/258
f 198/286/286 375/287/287 209/237/239
f 226/195/194 130/263/168 131/208/165
f 131/208/165 132/248/164 216/226/227 217/225/226
f 165/204/203 182/203/202 180/288/288 193/289/289
f 239/194/193 237/290/290 238/219/219
f 84/100/100 248/239/241 247/291/291 22/101/101
f 180/288/288 182/203/202 183/292/265
f 151/260/260 251/201/292 250/293/293 243/257/257
f 148/210/208 116/154/154 119/150/150
f 202/217/217 163/285/285 141/283/283
f 219/200/199 164/294/294 251/201/200
f 212/272/272 150/295/295 242/242/269
f 170/222/296 249/296/297 141/297/298 163/298/299
f 169/196/195 223/221/300 219/200/199 225/197/196
f 231/227/228 236/261/261 237/290/290 230/228/229
f 146/277/277 160/299/301 159/279/279
f 160/299/301 158/255/255 159/279/279
f 129/300/169 241/186/186 128/189/172
f 211/184/184 117/151/151 116/154/154 187/211/209
f 115/152/152 154/192/191 113/153/153
f 117/151/151 199/262/262 201/190/189
f 192/301/302 164/294/303 170/222/296 163/298/299
f 243/281/281 202/217/217 153/256/256
f 222/199/231 152/241/243 149/302/304 168/229/230
f 197/303/305 200/304/266 385/305/306
f 154/192/191 155/254/254 114/155/155 113/153/153
f 237/290/290 239/194/193 228/193/192 229/268/267
f 219/200/199 223/221/300 170/222/307
f 384/306/308 382/307/309 197/303/305 196/308/310
f 151/260/311 167/259/312 224/198/197
f 170/222/223 223/221/222 175/223/224
f 196/309/313 197/310/314 188/273/273
f 188/273/273 385/311/315 189/312/316
f 241/186/186 129/300/169 130/263/168 240/187/187
f 225/197/196 151/260/311 224/198/197
f 166/236/238 186/244/246 209/237/239
f 207/246/248 206/313/317 209/237/239
f 176/224/225 175/223/224 177/234/236
f 181/205/204 178/314/318 179/315/319 184/202/201
f 187/211/209 171/185/185 211/184/184
f 195/316/320 210/182/182 376/317/321
f 199/262/262 117/151/151 211/184/184
f 235/188/188 232/206/205 233/215/215
f 155/254/254 158/255/255 160/299/301 114/155/155
f 242/242/244 165/204/203 193/289/289 145/240/242
f 223/221/222 172/235/237 175/223/224
f 188/273/273 190/318/322 196/309/313
f 181/205/204 150/295/323 249/296/324 178/314/318
f 233/215/215 127/249/173 235/188/188
f 215/247/249 232/206/205 234/207/206
f 238/219/219 240/187/187 239/194/193
f 198/286/286 209/237/239 206/313/317
f 230/228/229 237/290/290 229/268/267
f 161/319/325 162/243/245 120/149/149 118/148/148
f 160/299/301 161/319/325 118/148/148 114/155/155
f 161/319/325 147/276/276 148/210/208 162/243/245
f 146/277/277 147/276/276 161/319/325 160/299/301
f 144/278/278 245/183/183 171/185/185 146/277/277
f 158/255/255 221/232/234 144/278/278 159/279/279
f 170/222/307 164/294/294 219/200/199
f 376/320/321 375/321/287 198/286/286
f 204/322/326 370/323/327 378/324/328 203/325/329
f 379/326/330 188/273/273 185/275/275
f 130/263/168 239/194/193 240/187/187
f 377/327/331 253/328/332 254/329/333
f 237/290/290 236/261/261 238/219/219
f 372/330/334 173/181/181 86/105/105
f 247/291/291 248/239/241 168/229/230 149/302/304
f 248/239/241 246/220/221 169/196/220 168/229/230
f 246/220/221 172/235/237 223/221/222
f 165/204/203 242/242/244 150/295/323 181/205/204
f 207/280/248 709/280/335 206/280/317
f 186/244/246 207/246/248 209/237/239
f 200/331/266 373/332/336 189/333/337
f 176/224/225 179/315/319 178/314/318
f 213/270/338 224/198/197 167/259/312
f 222/199/198 224/198/197 213/270/338 242/242/339
f 249/296/297 150/295/295 212/272/272 141/297/298
f 249/296/324 170/222/223 176/224/225 178/314/318
f 202/217/217 250/282/282 192/284/284
f 225/197/196 251/201/200 151/260/311
f 250/293/293 251/201/292 164/294/303 192/301/302
f 255/334/340 254/335/341 362/335/342 363/334/343
f 252/336/344 255/334/340 363/334/343 364/336/345
f 37/23/23 8/39/39 14/337/346 54/24/24
f 14/337/346 9/55/55 55/60/60 54/24/24
f 206/213/211 709/338/347 287/339/348
f 194/340/349 205/341/350 285/341/351 284/340/352
f 254/335/341 253/342/353 365/342/354 362/335/342
f 37/23/23 33/18/18 70/40/40
f 265/343/355 269/344/356 256/345/357 261/346/358
f 271/347/359 259/348/360 256/345/357 269/344/356
f 260/349/361 261/346/358 256/345/357 259/348/360
f 271/347/359 272/350/362 257/351/363 259/348/360
f 270/352/364 258/353/365 257/351/363 272/350/362
f 260/349/361 259/348/360 257/351/363 258/353/365
f 265/343/355 261/346/358 262/354/366 275/355/367
f 260/349/361 264/356/368 262/354/366 261/346/358
f 278/357/369 275/355/367 262/354/366 264/356/368
f 270/352/364 281/358/370 263/359/371 258/353/365
f 278/357/369 264/356/368 263/359/371 281/358/370
f 260/349/361 258/353/365 263/359/371 264/356/368
f 265/343/355 277/360/372 267/361/373 269/344/356
f 266/362/374 268/363/375 267/361/373 277/360/372
f 271/347/359 269/344/356 267/361/373 268/363/375
f 270/352/364 272/350/362 273/364/376 274/365/377
f 271/347/359 268/363/375 273/364/376 272/350/362
f 266/362/374 274/365/377 273/364/376 268/363/375
f 265/343/355 275/355/367 276/366/378 277/360/372
f 278/357/369 280/367/379 276/366/378 275/355/367
f 266/362/374 277/360/372 276/366/378 280/367/379
f 270/352/364 274/365/377 279/368/380 281/358/370
f 266/362/374 280/367/379 279/368/380 274/365/377
f 278/357/369 281/358/370 279/368/380 280/367/379
f 35/21/21 34/19/19 54/24/24
f 205/341/350 198/212/381 283/212/382 285/341/351
f 284/340/352 285/341/351 290/341/383 289/340/384
f 286/213/212 287/339/348 292/339/385 291/213/386
f 285/341/351 283/212/382 288/212/387
f 283/212/213 286/213/212 291/213/386 288/212/387
f 289/340/384 290/341/383 291/213/386 292/369/385
f 290/341/383 288/212/387 291/213/386
f 290/341/383 285/341/351 288/212/387
f 286/213/212 206/213/211 287/339/348
f 307/370/388 304/371/389 7/38/38 48/37/37
f 306/372/390 307/370/388 48/37/37 47/74/74
f 308/373/391 309/374/392 307/370/388 306/372/390
f 309/374/392 303/375/393 304/371/389 307/370/388
f 310/376/394 311/377/395 309/374/392 308/373/391
f 311/377/395 305/378/396 303/375/393 309/374/392
f 312/379/397 313/380/398 311/377/395 310/376/394
f 313/380/398 302/381/399 305/378/396 311/377/395
f 314/382/400 315/383/401 313/380/398 312/379/397
f 315/383/401 301/384/402 302/381/399 313/380/398
f 316/385/403 317/386/404 315/387/401 314/388/400
f 317/386/404 300/389/405 301/390/402 315/387/401
f 293/391/406 294/392/407 317/386/404 316/385/403
f 294/392/407 300/389/405 317/386/404
f 306/372/390 47/74/74 6/75/75 295/393/408
f 308/373/391 306/372/390 295/393/408 296/394/409
f 310/376/394 308/373/391 296/394/409 297/395/410
f 312/379/397 310/376/394 297/395/410 298/396/411
f 314/382/400 312/379/397 298/396/411 299/397/412
f 316/385/403 314/388/400 299/398/412 318/399/413
f 293/391/406 316/385/403 318/399/413
f 322/89/89 319/91/91 320/179/179 321/177/177
f 324/85/85 322/89/89 321/177/177 323/175/175
f 326/86/86 324/85/85 323/175/175 325/174/174
f 328/81/81 326/86/86 325/174/174 327/176/176
f 330/82/82 328/81/81 327/176/176 329/178/178
f 319/91/91 330/82/82 329/178/178 320/179/179
f 332/120/120 333/116/116 334/126/126 331/129/129
f 336/121/121 332/120/120 331/129/129 335/131/131
f 338/109/109 339/108/108 340/128/128 337/125/125
f 339/108/108 336/121/121 335/131/131 340/128/128
f 333/116/116 341/113/113 342/127/127 334/126/126
f 346/112/112 343/118/118 344/124/124 345/130/130
f 343/118/118 338/109/109 337/125/125 344/124/124
f 341/113/113 346/112/112 345/130/130 342/127/127
f 73/95/95 82/80/80 320/179/179 329/178/178
f 122/160/160 123/161/161 349/166/166 352/171/171
f 124/159/159 125/158/158 347/162/162 350/167/167
f 126/157/157 121/156/156 351/170/170 348/163/163
f 121/156/156 122/160/160 352/171/171 351/170/170
f 123/161/161 124/159/159 350/167/167 349/166/166
f 125/158/158 126/157/157 348/163/163 347/162/162
f 104/115/115 102/114/114 359/400/142 360/401/146
f 98/117/117 97/123/123 357/402/136 355/403/143
f 101/111/111 100/110/110 358/404/138 353/405/133
f 102/114/114 98/117/117 355/403/143 359/400/142
f 100/110/110 103/119/119 354/406/139 358/404/138
f 97/123/123 99/122/122 356/407/132 357/402/136
f 99/122/122 101/111/111 353/405/133 356/407/132
f 103/119/119 104/115/115 360/401/146 354/406/139
f 140/408/264 180/409/288 183/410/265
f 362/411/342 365/412/354 366/413/414
f 364/414/345 363/415/343 366/413/414
f 363/415/343 362/411/342 366/413/414
f 203/325/329 378/324/328 377/327/331 367/416/415
f 227/264/263 200/267/266 368/251/251 369/250/250
f 367/417/415 254/418/333 255/419/252 381/420/416
f 179/421/319 383/422/417 379/423/418
f 179/421/319 176/224/225 177/234/236 383/422/417
f 185/424/419 184/202/201 179/315/319
f 182/425/202 374/426/420 183/427/265
f 189/333/337 373/332/336 374/428/420
f 166/429/238 371/430/240 372/330/334 139/431/421
f 371/238/240 209/237/239 375/287/287
f 139/431/421 372/330/334 86/105/105 23/104/104
f 371/430/240 210/182/182 173/181/181 372/330/334
f 374/426/420 373/432/336 183/427/265
f 373/432/336 200/433/266 183/427/265
f 184/434/201 185/435/419 361/436/422
f 374/426/420 182/425/202 184/437/201
f 188/273/273 189/312/316 361/274/274
f 374/428/420 184/434/201 361/436/422
f 361/436/422 189/333/337 374/428/420
f 375/438/287 376/439/321 210/440/182
f 375/441/287 210/440/182 371/442/240
f 367/416/415 377/327/331 254/329/333
f 204/443/326 195/316/320 376/317/321
f 204/322/326 376/320/321 370/444/327
f 377/445/331 205/446/423 194/447/424
f 198/286/286 205/446/423 378/324/328 370/444/327
f 377/445/331 194/447/424 253/328/332
f 370/444/327 376/320/321 198/286/286
f 379/326/330 190/318/322 188/273/273
f 185/424/419 179/421/319 379/423/418
f 380/448/425 195/316/320 204/443/326 203/449/329
f 203/450/329 367/417/415 381/451/416 380/448/425
f 380/448/425 381/451/416 382/307/309 384/306/308
f 255/419/252 368/452/251 382/307/309 381/420/416
f 177/234/236 174/180/180 210/182/182
f 379/423/418 383/422/417 191/453/426 190/454/427
f 383/422/417 177/234/236 191/455/426
f 191/453/426 384/456/308 196/308/310 190/454/427
f 197/303/305 382/307/309 368/457/251 200/304/266
f 188/273/273 197/310/314 385/311/315
f 385/305/306 200/304/266 189/458/337
f 377/445/331 378/324/328 205/446/423
f 191/453/426 195/316/320 380/459/425
f 177/234/236 210/182/182 195/460/320
f 384/456/308 191/453/426 380/459/425
f 191/453/426 177/234/236 195/460/320
f 389/1/428 388/4/429 387/3/430 390/2/431
f 386/5/432 391/6/433 390/2/431 387/3/430
f 442/7/434 386/5/432 387/3/430 441/8/435
f 441/8/435 387/3/430 388/4/429 440/9/436
f 439/10/437 406/13/438 2/12/12 20/11/11
f 429/14/439 430/15/440 389/1/428 390/2/431
f 428/16/441 429/14/439 390/2/431 391/6/433
f 392/17/442 393/20/443 396/19/444 395/18/445
f 396/19/444 393/20/443 394/22/446 397/21/447
f 396/19/444 416/24/448 399/23/449
f 394/22/446 401/26/450 400/25/451 397/21/447
f 411/27/452 428/16/441 391/6/433 402/28/453
f 443/29/454 403/30/455 386/5/432 442/7/434
f 440/9/436 449/32/456 404/31/457 441/8/435
f 388/4/429 406/13/438 439/10/437 440/9/436
f 407/33/458 406/13/438 388/4/429 389/1/428
f 430/15/440 431/34/459 407/33/458 389/1/428
f 398/35/460 408/36/461 392/17/442 395/18/445
f 410/37/462 399/23/449 8/39/39 7/38/38
f 395/18/445 432/40/463 398/35/460
f 407/33/458 3/41/41 2/12/12 406/13/438
f 431/34/459 17/42/42 3/41/41 407/33/458
f 398/35/460 5/44/44 4/43/43 408/36/461
f 432/40/463 18/45/45 5/44/44 398/35/460
f 433/46/464 445/47/465 443/29/454 442/7/434
f 13/48/48 411/27/452 402/28/453 10/49/49
f 401/26/450 438/52/466 413/51/467 412/50/468
f 457/53/469 15/56/470 9/55/55 452/54/471
f 400/25/451 401/26/450 412/50/468 414/57/472
f 452/54/471 417/60/473 418/59/474 415/58/475
f 400/25/451 417/60/473 416/24/448 397/21/447
f 418/59/474 417/60/473 400/25/451 414/57/472
f 412/50/468 413/51/467 420/62/476 419/61/477
f 420/62/476 413/51/467 425/64/478 426/63/479
f 414/57/472 412/50/468 419/61/477 421/65/480
f 415/58/475 418/59/474 423/67/481 422/66/482
f 418/59/474 414/57/472 421/65/480 423/67/481
f 453/68/483 456/70/484 457/53/469 424/69/485
f 427/71/486 424/69/485 415/58/475 422/66/482
f 454/72/487 453/68/483 424/69/485 427/71/486
f 428/16/441 438/52/466 401/26/450 394/22/446
f 393/20/443 429/14/439 428/16/441 394/22/446
f 392/17/442 430/15/440 429/14/439 393/20/443
f 408/36/461 431/34/459 430/15/440 392/17/442
f 408/36/461 4/43/43 17/42/42 431/34/459
f 413/51/467 411/27/452 455/73/488 425/64/478
f 409/74/489 432/40/463 399/23/449 410/37/462
f 409/74/489 6/75/75 18/45/45 432/40/463
f 404/31/457 433/46/464 442/7/434 441/8/435
f 11/76/76 436/78/490 21/77/77
f 403/30/455 443/29/454 444/80/491 437/79/492
f 655/81/493 497/84/494 494/83/495 657/82/496
f 651/85/497 499/88/498 496/87/499 653/86/500
f 649/89/501 498/90/502 499/88/498 651/85/497
f 646/91/503 495/92/504 498/90/502 649/89/501
f 413/51/467 438/52/466 411/27/452
f 428/16/441 411/27/452 438/52/466
f 405/93/505 439/10/437 20/11/11 1/94/94
f 435/95/506 444/80/491 443/29/454 445/47/465
f 657/82/496 494/83/495 495/92/504 646/91/503
f 653/86/500 496/87/499 497/84/494 655/81/493
f 12/96/96 21/77/77 434/97/507
f 11/76/76 10/49/49 402/28/453 451/98/508
f 386/5/432 451/98/508 402/28/453 391/6/433
f 445/47/465 433/46/464 19/99/99 12/96/96
f 435/95/506 445/47/465 12/96/96 434/97/507
f 405/93/505 1/94/94 22/101/101 446/100/509
f 404/31/457 449/32/456 450/103/510 447/102/511
f 19/99/99 433/46/464 448/105/512 23/104/104
f 433/46/464 404/31/457 447/102/511 448/105/512
f 405/93/505 449/32/456 440/9/436 439/10/437
f 450/103/510 449/32/456 405/93/505 446/100/509
f 451/98/508 436/78/490 11/76/76
f 386/5/432 403/30/455 451/98/508
f 9/55/55 417/60/473 452/54/471
f 424/69/485 457/53/469 452/54/471 415/58/475
f 426/63/479 425/64/478 453/68/483 454/72/487
f 425/64/478 455/73/488 456/70/484 453/68/483
f 456/70/484 91/106/513 15/56/470 457/53/469
f 455/73/488 16/107/107 91/106/513 456/70/484
f 455/73/488 13/48/48 16/107/107
f 411/27/452 13/48/48 455/73/488
f 395/18/445 396/19/444 399/23/449
f 666/108/514 462/111/515 461/110/516 665/109/517
f 673/112/518 465/115/519 463/114/520 668/113/521
f 668/113/521 463/114/520 459/117/522 660/116/523
f 670/118/524 464/119/525 465/115/519 673/112/518
f 659/120/526 458/123/527 460/122/528 663/121/529
f 665/109/517 461/110/516 464/119/525 670/118/524
f 663/121/529 460/122/528 462/111/515 666/108/514
f 422/66/482 664/125/530 671/124/531 427/71/486
f 426/63/479 669/127/532 661/126/533 420/62/476
f 423/67/481 667/128/534 664/125/530 422/66/482
f 420/62/476 661/126/533 658/129/535 419/61/477
f 454/72/487 672/130/536 669/127/532 426/63/479
f 427/71/486 671/124/531 672/130/536 454/72/487
f 421/65/480 662/131/537 667/128/534 423/67/481
f 419/61/477 658/129/535 662/131/537 421/65/480
f 683/132/538 468/135/539 470/134/540 680/133/541
f 684/136/542 466/137/543 468/135/539 683/132/538
f 685/138/544 469/141/545 472/140/546 681/139/547
f 686/142/548 471/145/549 467/144/550 682/143/551
f 680/133/541 470/134/540 469/141/545 685/138/544
f 682/143/551 467/144/550 466/137/543 684/136/542
f 687/146/552 473/147/553 471/145/549 686/142/548
f 681/139/547 472/140/546 473/147/553 687/146/552
f 473/147/553 481/149/554 479/148/555 471/145/549
f 472/140/546 480/150/556 481/149/554 473/147/553
f 468/135/539 476/152/557 478/151/558 470/134/540
f 466/137/543 474/153/559 476/152/557 468/135/539
f 469/141/545 477/154/560 480/150/556 472/140/546
f 471/145/549 479/148/555 475/155/561 467/144/550
f 470/134/540 478/151/558 477/154/560 469/141/545
f 467/144/550 475/155/561 474/153/559 466/137/543
f 436/78/490 451/98/508 403/30/455 437/79/492
f 494/83/495 487/157/562 482/156/563 495/92/504
f 496/87/499 485/159/564 486/158/565 497/84/494
f 495/92/504 482/156/563 483/160/566 498/90/502
f 497/84/494 486/158/565 487/157/562 494/83/495
f 499/88/498 484/161/567 485/159/564 496/87/499
f 498/90/502 483/160/566 484/161/567 499/88/498
f 674/162/568 492/165/569 493/164/570 675/163/571
f 676/166/572 490/169/573 491/168/574 677/167/575
f 678/170/576 488/173/577 489/172/578 679/171/579
f 675/163/571 493/164/570 488/173/577 678/170/576
f 677/167/575 491/168/574 492/165/569 674/162/568
f 679/171/579 489/172/578 490/169/573 676/166/572
f 21/77/77 436/78/490 650/175/580 652/174/581
f 434/97/507 21/77/77 652/174/581 654/176/582
f 660/116/523 459/117/522 458/123/527 659/120/526
f 437/79/492 648/177/583 650/175/580 436/78/490
f 435/95/506 434/97/507 654/176/582 656/178/584
f 444/80/491 647/179/585 648/177/583 437/79/492
f 529/180/586 560/182/587 528/181/588
f 594/183/589 526/185/590 561/184/591
f 590/186/592 489/189/578 584/188/593 589/187/594
f 552/190/595 476/152/557 510/192/596 501/191/597
f 577/193/598 576/195/599 588/194/600
f 524/196/601 572/199/602 574/198/603 575/197/604
f 569/200/605 575/197/604 599/201/606
f 538/202/607 535/205/608 521/204/609 536/203/610
f 581/206/611 583/207/612 584/188/593
f 576/195/599 577/193/598 570/209/613 492/208/569
f 477/154/560 540/211/614 506/210/615
f 549/212/616 628/212/617 630/213/618 557/213/619
f 564/214/620 581/206/611 582/215/621
f 593/216/622 562/218/623 553/217/624
f 587/219/625 589/187/594 584/188/593 583/207/612
f 524/196/626 573/221/627 595/220/628
f 525/222/629 531/224/630 530/223/631
f 567/225/632 579/228/633 580/227/634 566/226/635
f 523/229/636 572/199/637 524/196/626
f 512/230/638 513/233/639 571/232/640 502/231/641
f 529/180/586 530/223/631 532/234/642
f 529/180/586 528/181/588 527/235/643
f 527/235/643 530/223/631 529/180/586
f 450/103/510 595/220/628 527/235/643 447/102/511
f 166/236/238 694/238/644 559/237/645
f 450/103/510 446/100/509 596/239/646 595/220/628
f 145/240/242 591/242/647 572/199/637 152/241/243
f 506/210/615 518/243/648 481/149/554 480/150/556
f 186/244/246 558/246/649 208/245/247
f 564/214/620 488/249/577 493/248/570 565/247/650
f 369/250/250 252/253/253 601/252/651 692/251/652
f 478/151/558 476/152/557 552/190/595
f 582/215/621 488/249/577 564/214/620
f 511/254/653 514/255/654 513/233/639 512/230/638
f 509/256/655 593/216/622 553/217/624
f 592/257/656 508/260/657 522/259/658 509/258/659
f 585/261/660 583/207/612 565/247/650 580/227/634
f 550/262/661 571/232/640 594/183/589 561/184/591
f 588/194/600 576/195/599 491/263/574
f 488/249/577 584/188/593 489/189/578
f 227/264/263 551/267/662 537/266/663 140/265/264
f 577/193/598 578/268/664 570/209/613
f 578/268/664 492/208/569 570/209/613
f 578/268/664 568/269/665 492/208/569
f 448/105/512 447/102/511 527/235/643 528/181/588
f 568/269/665 567/225/632 492/208/569
f 591/242/666 562/272/667 593/271/668 563/270/669
f 580/227/634 565/247/650 566/226/635
f 541/273/670 539/275/671 688/274/672
f 581/206/611 564/214/620 565/247/650
f 493/248/570 566/226/635 565/247/650
f 583/207/612 585/261/660 587/219/625
f 506/210/615 540/211/614 505/276/673
f 505/276/673 540/211/614 504/277/674
f 526/185/590 504/277/674 540/211/614
f 503/278/675 515/279/676 504/277/674
f 579/228/633 567/225/632 568/269/665 578/268/664
f 503/278/675 594/183/589 571/232/640
f 513/233/639 514/255/654 571/232/640
f 550/262/661 502/231/641 571/232/640
f 502/231/641 550/262/661 501/191/597
f 502/231/641 501/191/597 512/230/638
f 501/191/597 550/262/661 552/190/595
f 512/230/638 501/191/597 511/254/653
f 510/192/596 511/254/653 501/191/597
f 208/280/247 558/280/649 282/280/280
f 592/281/677 553/217/624 598/282/678
f 562/218/623 500/283/679 553/217/624
f 553/217/624 519/285/680 545/284/681
f 593/271/668 509/258/659 522/259/658 563/270/669
f 549/286/682 559/237/645 698/287/683
f 576/195/599 492/208/569 491/263/574
f 492/208/569 567/225/632 566/226/635 493/248/570
f 521/204/609 193/289/289 180/288/288 536/203/610
f 588/194/600 587/219/625 586/290/684
f 446/100/509 22/101/101 247/291/291 596/239/646
f 180/288/288 537/292/663 536/203/610
f 508/260/657 592/257/656 598/293/685 599/201/686
f 506/210/615 480/150/556 477/154/560
f 553/217/624 500/283/679 519/285/680
f 569/200/605 599/201/606 520/294/687
f 562/272/667 591/242/666 507/295/688
f 525/222/689 519/298/690 500/297/691 597/296/692
f 524/196/601 575/197/604 569/200/605 573/221/693
f 580/227/634 579/228/633 586/290/684 585/261/660
f 504/277/674 515/279/676 516/299/694
f 516/299/694 515/279/676 514/255/654
f 490/300/573 489/189/578 590/186/592
f 561/184/591 540/211/614 477/154/560 478/151/558
f 476/152/557 474/153/559 510/192/596
f 478/151/558 552/190/595 550/262/661
f 545/301/695 519/298/690 525/222/689 520/294/696
f 592/281/677 509/256/655 553/217/624
f 572/199/637 523/229/636 149/302/304 152/241/243
f 548/303/697 708/305/698 551/304/662
f 510/192/596 474/153/559 475/155/561 511/254/653
f 586/290/684 578/268/664 577/193/598 588/194/600
f 569/200/605 525/222/699 573/221/693
f 707/306/700 547/308/701 548/303/697 705/307/702
f 508/260/703 574/198/603 522/259/704
f 525/222/629 530/223/631 573/221/627
f 547/309/705 541/273/670 548/310/706
f 541/273/670 542/312/707 708/311/708
f 590/186/592 589/187/594 491/263/574 490/300/573
f 575/197/604 574/198/603 508/260/703
f 166/236/238 559/237/645 186/244/246
f 558/246/649 559/237/645 557/313/709
f 531/224/630 532/234/642 530/223/631
f 535/205/608 538/202/607 534/315/710 533/314/711
f 540/211/614 561/184/591 526/185/590
f 546/316/712 699/317/713 560/182/587
f 550/262/661 561/184/591 478/151/558
f 584/188/593 582/215/621 581/206/611
f 511/254/653 475/155/561 516/299/694 514/255/654
f 591/242/647 145/240/242 193/289/289 521/204/609
f 573/221/627 530/223/631 527/235/643
f 541/273/670 547/309/705 543/318/714
f 535/205/608 533/314/711 597/296/715 507/295/716
f 582/215/621 584/188/593 488/249/577
f 565/247/650 583/207/612 581/206/611
f 587/219/625 588/194/600 589/187/594
f 549/286/682 557/313/709 559/237/645
f 579/228/633 578/268/664 586/290/684
f 517/319/717 479/148/555 481/149/554 518/243/648
f 516/299/694 475/155/561 479/148/555 517/319/717
f 517/319/717 518/243/648 506/210/615 505/276/673
f 504/277/674 516/299/694 517/319/717 505/276/673
f 503/278/675 504/277/674 526/185/590 594/183/589
f 514/255/654 515/279/676 503/278/675 571/232/640
f 525/222/699 569/200/605 520/294/687
f 699/320/713 549/286/682 698/321/683
f 555/322/718 554/325/719 701/324/720 693/323/721
f 702/326/722 539/275/671 541/273/670
f 491/263/574 589/187/594 588/194/600
f 700/327/723 600/329/724 253/328/332
f 586/290/684 587/219/625 585/261/660
f 695/330/725 448/105/512 528/181/588
f 247/291/291 149/302/304 523/229/636 596/239/646
f 596/239/646 523/229/636 524/196/626 595/220/628
f 595/220/628 573/221/627 527/235/643
f 521/204/609 535/205/608 507/295/716 591/242/647
f 558/280/649 557/280/709 282/280/280
f 186/244/246 559/237/645 558/246/649
f 551/331/662 542/333/726 696/332/727
f 531/224/630 533/314/711 534/315/710
f 563/270/728 522/259/704 574/198/603
f 572/199/602 591/242/729 563/270/728 574/198/603
f 597/296/692 500/297/691 562/272/667 507/295/688
f 597/296/715 533/314/711 531/224/630 525/222/629
f 553/217/624 545/284/681 598/282/678
f 575/197/604 508/260/703 599/201/606
f 598/293/685 545/301/695 520/294/696 599/201/686
f 601/334/730 690/334/731 689/335/732 600/335/733
f 252/336/344 364/336/345 690/334/731 601/334/730
f 399/23/449 416/24/448 14/337/346 8/39/39
f 14/337/346 416/24/448 417/60/473 9/55/55
f 557/213/619 287/339/348 282/339/734
f 194/340/349 284/340/352 629/341/735 556/341/736
f 600/335/733 689/335/732 365/342/354 253/342/353
f 399/23/449 432/40/463 395/18/445
f 611/343/737 607/346/738 602/345/739 615/344/740
f 617/347/741 615/344/740 602/345/739 605/348/742
f 606/349/743 605/348/742 602/345/739 607/346/738
f 617/347/741 605/348/742 603/351/744 618/350/745
f 616/352/746 618/350/745 603/351/744 604/353/747
f 606/349/743 604/353/747 603/351/744 605/348/742
f 611/343/737 621/355/748 608/354/749 607/346/738
f 606/349/743 607/346/738 608/354/749 610/356/750
f 624/357/751 610/356/750 608/354/749 621/355/748
f 616/352/746 604/353/747 609/359/752 627/358/753
f 624/357/751 627/358/753 609/359/752 610/356/750
f 606/349/743 610/356/750 609/359/752 604/353/747
f 611/343/737 615/344/740 613/361/754 623/360/755
f 612/362/756 623/360/755 613/361/754 614/363/757
f 617/347/741 614/363/757 613/361/754 615/344/740
f 616/352/746 620/365/758 619/364/759 618/350/745
f 617/347/741 618/350/745 619/364/759 614/363/757
f 612/362/756 614/363/757 619/364/759 620/365/758
f 611/343/737 623/360/755 622/366/760 621/355/748
f 624/357/751 621/355/748 622/366/760 626/367/761
f 612/362/756 626/367/761 622/366/760 623/360/755
f 616/352/746 627/358/753 625/368/762 620/365/758
f 612/362/756 620/365/758 625/368/762 626/367/761
f 624/357/751 626/367/761 625/368/762 627/358/753
f 397/21/447 416/24/448 396/19/444
f 556/341/736 629/341/735 628/212/763 549/212/764
f 284/340/352 289/340/384 632/341/765 629/341/735
f 630/213/618 633/213/766 292/339/385 287/339/348
f 629/341/735 631/212/767 628/212/763
f 628/212/617 631/212/767 633/213/766 630/213/618
f 289/340/384 292/369/385 633/213/766 632/341/765
f 632/341/765 633/213/766 631/212/767
f 632/341/765 631/212/767 629/341/735
f 630/213/618 287/339/348 557/213/619
f 635/370/768 410/37/462 7/38/38 304/371/389
f 634/372/769 409/74/489 410/37/462 635/370/768
f 636/373/770 634/372/769 635/370/768 637/374/771
f 637/374/771 635/370/768 304/371/389 303/375/393
f 638/376/772 636/373/770 637/374/771 639/377/773
f 639/377/773 637/374/771 303/375/393 305/378/396
f 640/379/774 638/376/772 639/377/773 641/380/775
f 641/380/775 639/377/773 305/378/396 302/381/399
f 642/382/776 640/379/774 641/380/775 643/383/777
f 643/383/777 641/380/775 302/381/399 301/384/402
f 644/385/778 642/388/776 643/387/777 645/386/779
f 645/386/779 643/387/777 301/390/402 300/389/405
f 293/391/406 644/385/778 645/386/779 294/392/407
f 294/392/407 645/386/779 300/389/405
f 634/372/769 295/393/408 6/75/75 409/74/489
f 636/373/770 296/394/409 295/393/408 634/372/769
f 638/376/772 297/395/410 296/394/409 636/373/770
f 640/379/774 298/396/411 297/395/410 638/376/772
f 642/382/776 299/397/412 298/396/411 640/379/774
f 644/385/778 318/399/413 299/398/412 642/388/776
f 293/391/406 318/399/413 644/385/778
f 649/89/501 648/177/583 647/179/585 646/91/503
f 651/85/497 650/175/580 648/177/583 649/89/501
f 653/86/500 652/174/581 650/175/580 651/85/497
f 655/81/493 654/176/582 652/174/581 653/86/500
f 657/82/496 656/178/584 654/176/582 655/81/493
f 646/91/503 647/179/585 656/178/584 657/82/496
f 659/120/526 658/129/535 661/126/533 660/116/523
f 663/121/529 662/131/537 658/129/535 659/120/526
f 665/109/517 664/125/530 667/128/534 666/108/514
f 666/108/514 667/128/534 662/131/537 663/121/529
f 660/116/523 661/126/533 669/127/532 668/113/521
f 673/112/518 672/130/536 671/124/531 670/118/524
f 670/118/524 671/124/531 664/125/530 665/109/517
f 668/113/521 669/127/532 672/130/536 673/112/518
f 435/95/506 656/178/584 647/179/585 444/80/491
f 483/160/566 679/171/579 676/166/572 484/161/567
f 485/159/564 677/167/575 674/162/568 486/158/565
f 487/157/562 675/163/571 678/170/576 482/156/563
f 482/156/563 678/170/576 679/171/579 483/160/566
f 484/161/567 676/166/572 677/167/575 485/159/564
f 486/158/565 674/162/568 675/163/571 487/157/562
f 465/115/519 687/401/552 686/400/548 463/114/520
f 459/117/522 682/403/551 684/402/542 458/123/527
f 462/111/515 680/405/541 685/404/544 461/110/516
f 463/114/520 686/400/548 682/403/551 459/117/522
f 461/110/516 685/404/544 681/406/547 464/119/525
f 458/123/527 684/402/542 683/407/538 460/122/528
f 460/122/528 683/407/538 680/405/541 462/111/515
f 464/119/525 681/406/547 687/401/552 465/115/519
f 140/408/264 537/410/663 180/409/288
f 689/411/732 366/413/414 365/412/354
f 364/414/345 366/413/414 690/415/731
f 690/415/731 366/413/414 689/411/732
f 554/325/719 691/416/780 700/327/723 701/324/720
f 227/264/263 369/250/250 692/251/652 551/267/662
f 691/417/780 704/420/781 601/419/651 600/418/724
f 534/421/710 702/423/782 706/422/783
f 534/421/710 706/422/783 532/234/642 531/224/630
f 539/424/784 534/315/710 538/202/607
f 536/425/610 537/427/663 697/426/785
f 542/333/726 697/428/785 696/332/727
f 166/429/238 139/431/421 695/330/725 694/430/644
f 694/238/644 698/287/683 559/237/645
f 139/431/421 23/104/104 448/105/512 695/330/725
f 694/430/644 695/330/725 528/181/588 560/182/587
f 697/426/785 537/427/663 696/432/727
f 696/432/727 537/427/663 551/433/662
f 538/434/607 688/436/786 539/435/784
f 697/426/785 538/437/607 536/425/610
f 541/273/670 688/274/672 542/312/707
f 697/428/785 688/436/786 538/434/607
f 688/436/786 697/428/785 542/333/726
f 698/438/683 560/440/587 699/439/713
f 698/441/683 694/442/644 560/440/587
f 691/416/780 600/329/724 700/327/723
f 555/443/718 699/317/713 546/316/712
f 555/322/718 693/444/721 699/320/713
f 700/445/723 194/447/424 556/446/787
f 549/286/682 693/444/721 701/324/720 556/446/787
f 700/445/723 253/328/332 194/447/424
f 693/444/721 549/286/682 699/320/713
f 702/326/722 541/273/670 543/318/714
f 539/424/784 702/423/782 534/421/710
f 703/448/788 554/449/719 555/443/718 546/316/712
f 554/450/719 703/448/788 704/451/781 691/417/780
f 703/448/788 707/306/700 705/307/702 704/451/781
f 601/419/651 704/420/781 705/307/702 692/452/652
f 532/234/642 560/182/587 529/180/586
f 702/423/782 543/454/789 544/453/790 706/422/783
f 706/422/783 544/455/790 532/234/642
f 544/453/790 543/454/789 547/308/701 707/456/700
f 548/303/697 551/304/662 692/457/652 705/307/702
f 541/273/670 708/311/708 548/310/706
f 708/305/698 542/458/726 551/304/662
f 700/445/723 556/446/787 701/324/720
f 544/453/790 703/459/788 546/316/712
f 532/234/642 546/460/712 560/182/587
f 707/456/700 703/459/788 544/453/790
f 544/453/790 546/460/712 532/234/642
f 287/339/348 709/338/347 282/339/734
f 709/280/335 207/280/248 282/280/280
